<?xml version="1.0" standalone="no"?>
<!DOCTYPE svg PUBLIC "-//W3C//DTD SVG 1.1//EN" "http://www.w3.org/Graphics/SVG/1.1/DTD/svg11.dtd" >
<svg xmlns="http://www.w3.org/2000/svg" xmlns:xlink="http://www.w3.org/1999/xlink" version="1.1">
<metadata>
Created by FontForge 20170731 at Tue Feb  9 00:21:24 2016
 By Aleksey,,,
Copyright (c) 2016 by Fernando Haro. All rights reserved.
</metadata>
<defs>
<font id="IndultaSemiSerif" horiz-adv-x="892" >
  <font-face 
    font-family="Indulta SemiSerif"
    font-weight="500"
    font-stretch="normal"
    units-per-em="1000"
    panose-1="2 6 5 3 4 0 0 2 0 3"
    ascent="774"
    descent="-226"
    x-height="531"
    cap-height="774"
    bbox="-76 -226 1167 1025"
    underline-thickness="22"
    underline-position="-313"
    unicode-range="U+000D-F8FF"
  />
<missing-glyph horiz-adv-x="576" 
d="M155 148v384h229v-155h155v-229h-384zM243 425h56v56h-56v-56zM1 148h154v-155z" />
    <glyph glyph-name=".notdef" horiz-adv-x="576" 
d="M155 148v384h229v-155h155v-229h-384zM243 425h56v56h-56v-56zM1 148h154v-155z" />
    <glyph glyph-name=".null" horiz-adv-x="0" 
 />
    <glyph glyph-name="nonmarkingreturn" horiz-adv-x="333" 
 />
    <glyph glyph-name="NULL" horiz-adv-x="0" 
 />
    <glyph glyph-name="NULL" horiz-adv-x="0" 
 />
    <glyph glyph-name="CR" unicode="&#xd;" horiz-adv-x="323" 
 />
    <glyph glyph-name="space" unicode=" " horiz-adv-x="323" 
 />
    <glyph glyph-name="exclam" unicode="!" horiz-adv-x="276" 
d="M103 219l-28 557h153l-31 -557h-94zM55 70q0 39 27 66.5t66 27.5t66.5 -27.5t27.5 -66.5t-27.5 -66t-66.5 -27t-66 27t-27 66z" />
    <glyph glyph-name="quotedbl" unicode="&#x22;" horiz-adv-x="441" 
d="M188 495h-127v279h127v-279zM380 495h-127v279h127v-279z" />
    <glyph glyph-name="numbersign" unicode="#" horiz-adv-x="726" 
d="M111 -14l34 207h-111v102h126l27 156h-108v102h125l38 222h109l-38 -222h145l37 222h109l-37 -222h112v-102h-128l-27 -156h111v-102h-128l-34 -207h-109l36 207h-147l-33 -207h-109zM270 295h146l26 156h-146z" />
    <glyph glyph-name="dollar" unicode="$" horiz-adv-x="664" 
d="M280 -91v86q-144 19 -231 118l92 82q65 -73 139 -88v240q-37 11 -62.5 20t-54.5 26t-46.5 37.5t-29.5 52t-12 70.5q0 90 55 145t150 68v83h103v-83q112 -14 210 -102l-89 -87q-63 59 -121 72v-205q42 -10 69 -19t61.5 -26.5t54.5 -39t34.5 -57t14.5 -80.5
q0 -98 -59.5 -158.5t-174.5 -70.5v-84h-103zM489 208q0 43 -24.5 67t-81.5 43v-214q106 11 106 104zM203 561q0 -35 17 -54t60 -34v177q-77 -13 -77 -89z" />
    <glyph glyph-name="percent" unicode="%" horiz-adv-x="956" 
d="M219 407q-77 0 -133.5 57t-56.5 136q0 78 55.5 133.5t133.5 55.5q77 0 132 -54t55 -132q0 -77 -53.5 -136.5t-132.5 -59.5zM302 599q-2 34 -26.5 58.5t-58.5 24.5t-60 -24.5t-26 -59.5q0 -34 25.5 -60.5t59.5 -26.5t60 26.5t26 61.5zM681 -14q-77 0 -133.5 57t-56.5 136
q0 78 55.5 133.5t133.5 55.5q77 0 132 -54t55 -132q0 -77 -53.5 -136.5t-132.5 -59.5zM764 178q-2 34 -26.5 58.5t-58.5 24.5t-60 -24.5t-26 -59.5q0 -34 25.5 -60.5t59.5 -26.5t60 26.5t26 61.5zM130 0l525 774h99l-525 -774h-99z" />
    <glyph glyph-name="ampersand" unicode="&#x26;" horiz-adv-x="749" 
d="M593 -21l-100 112q-33 -44 -94 -73.5t-123 -29.5q-87 0 -145.5 57t-58.5 141q0 58 31 105.5t105 117.5q-46 58 -67.5 103.5t-21.5 93.5q0 79 52.5 129.5t129.5 50.5q73 0 124.5 -47.5t51.5 -130.5q0 -53 -26 -100t-87 -102l130 -139q30 29 48 71.5t22 76.5l105 -39
q-1 -36 -33 -103t-60 -94l115 -124zM421 174l-144 154q-82 -78 -82 -138q0 -36 25.5 -61t66.5 -25q69 0 134 70zM375 607q0 34 -19.5 58.5t-55.5 24.5q-35 0 -55.5 -23.5t-20.5 -57.5q0 -28 16.5 -57.5t55.5 -71.5q43 38 61 67t18 60z" />
    <glyph glyph-name="quotesingle" unicode="'" horiz-adv-x="249" 
d="M188 495h-127v279h127v-279z" />
    <glyph glyph-name="parenleft" unicode="(" horiz-adv-x="340" 
d="M285 -62l-58 -69q-93 103 -143 208t-50 252q0 143 49 249t144 211l58 -69q-65 -84 -99 -176t-34 -215q0 -122 34 -214.5t99 -176.5z" />
    <glyph glyph-name="parenright" unicode=")" horiz-adv-x="340" 
d="M113 -131l-58 69q65 84 99 176.5t34 214.5q0 123 -34 215t-99 176l58 69q95 -105 144 -211t49 -249q0 -147 -50 -252t-143 -208z" />
    <glyph glyph-name="asterisk" unicode="*" horiz-adv-x="528" 
d="M417 668l30 -91l-131 -40l86 -121l-79 -55l-85 114l-86 -114l-78 55l85 121l-130 40l29 91l127 -42v148h106v-148z" />
    <glyph glyph-name="plus" unicode="+" horiz-adv-x="711" 
d="M301 326h-225v110h227v210h110v-210h222v-110h-222v-211h-112v211z" />
    <glyph glyph-name="comma" unicode="," horiz-adv-x="211" 
d="M109 -74h-109l72 229h128z" />
    <glyph glyph-name="hyphen" unicode="-" horiz-adv-x="424" 
d="M54 212v111h316v-111h-316z" />
    <glyph glyph-name="period" unicode="." horiz-adv-x="258" 
d="M21 82q0 39 27.5 66.5t66.5 27.5t66.5 -27.5t27.5 -66.5t-27.5 -66.5t-66.5 -27.5t-66.5 27.5t-27.5 66.5z" />
    <glyph glyph-name="slash" unicode="/" horiz-adv-x="350" 
d="M32 -16l207 790h93l-210 -790h-90z" />
    <glyph glyph-name="zero" unicode="0" horiz-adv-x="647" 
d="M323 -12q-70 0 -123 32t-84 88t-46 124t-15 148t15 148.5t46 124.5t84 88.5t123 32.5t123.5 -32.5t84.5 -88.5t46 -125t15 -148t-15 -147.5t-46 -124.5t-84.5 -88t-123.5 -32zM323 106q68 0 102 79t34 194t-34 195.5t-102 80.5t-102 -80.5t-34 -195.5t34 -194t102 -79z
" />
    <glyph glyph-name="one" unicode="1" horiz-adv-x="306" 
d="M45 0v107h58v548l-55 -24l-27 98l85 36h124v-658h58v-107h-243z" />
    <glyph glyph-name="two" unicode="2" horiz-adv-x="588" 
d="M62 0q-6 46 -6 68q0 58 19.5 108.5t50.5 87t68.5 68.5t75.5 59t69 52.5t50.5 55t19.5 60.5q0 50 -33 75.5t-79 25.5q-26 0 -50.5 -9.5t-41 -23t-29.5 -27t-19 -22.5l-6 -10l-96 64q3 6 9 15.5t28.5 34t48.5 43t70 34t93 15.5q100 0 166.5 -53t66.5 -161
q0 -45 -18.5 -85.5t-47.5 -71.5t-64.5 -59t-71 -54.5t-65 -52t-48 -57t-19.5 -64.5h351v-116h-492z" />
    <glyph glyph-name="three" unicode="3" horiz-adv-x="630" 
d="M55 81l66 99q9 -8 24.5 -20t60.5 -32t86 -20q63 0 101.5 39.5t38.5 95.5q0 57 -41.5 98.5t-121.5 41.5h-60l-46 66l162 159l57 40h-296v111h456v-81l-196 -193q83 -15 149.5 -82t66.5 -161q0 -100 -74 -177t-193 -77q-39 0 -78.5 9.5t-67.5 23t-50 27.5t-33 24z" />
    <glyph glyph-name="four" unicode="4" horiz-adv-x="653" 
d="M34 193v79l340 494h153v-466h92v-107h-92v-193h-127v193h-366zM187 300h216v329l-35 -65z" />
    <glyph glyph-name="five" unicode="5" horiz-adv-x="618" 
d="M68 82l58 97q7 -8 20.5 -20t53 -31.5t76.5 -19.5q61 0 108 42.5t47 102.5t-47.5 103t-113.5 43q-27 0 -55 -7.5t-43 -15.5l-14 -7l-71 26l33 364h397v-112h-286l-11 -120l-5 -33q34 16 78 16q119 0 194.5 -69t75.5 -182q0 -118 -80.5 -194.5t-199.5 -76.5q-40 0 -77 9.5
t-61 23.5t-42.5 28t-26.5 23z" />
    <glyph glyph-name="six" unicode="6" horiz-adv-x="646" 
d="M338 -12q-126 0 -204.5 96t-78.5 256q0 83 22.5 159t65 138t112 99.5t156.5 37.5q40 0 76 -7.5t52 -14.5l16 -8l-38 -111q-45 22 -100 22q-85 0 -143 -62.5t-72 -144.5q54 50 151 50q101 0 169.5 -73t68.5 -182t-70.5 -182t-182.5 -73zM341 108q52 0 87 38.5t35 95.5
q0 62 -41 106t-108 44q-49 0 -87 -24t-38 -75q0 -58 43 -121.5t109 -63.5z" />
    <glyph glyph-name="seven" unicode="7" horiz-adv-x="503" 
d="M329 641h-308v118h448v-104l-268 -655h-131z" />
    <glyph glyph-name="eight" unicode="8" horiz-adv-x="586" 
d="M171 388q-95 61 -95 168q0 93 63.5 155.5t151.5 62.5q87 0 151.5 -60.5t64.5 -154.5q0 -109 -100 -166q45 -11 89 -59.5t44 -128.5q0 -99 -72.5 -157.5t-176.5 -58.5q-101 0 -173 56t-72 153q0 78 44 129t81 61zM388 558q0 43 -26 75.5t-71 32.5q-46 0 -71.5 -33
t-25.5 -77t26 -75.5t71 -31.5q46 0 71.5 32.5t25.5 76.5zM414 220q0 48 -37 81t-86 33q-50 0 -85.5 -35t-35.5 -82q0 -46 35.5 -77.5t85.5 -31.5q51 0 87 32.5t36 79.5z" />
    <glyph glyph-name="nine" unicode="9" horiz-adv-x="646" 
d="M309 774q120 0 201 -87t81 -258q0 -86 -22.5 -164t-65 -140.5t-112 -99.5t-156.5 -37q-40 0 -76 7.5t-52 14.5l-16 8l38 111q45 -22 100 -22q85 0 143 60.5t72 142.5q-20 -22 -63.5 -36t-87.5 -14q-101 0 -169.5 73t-68.5 182q0 108 69.5 183.5t184.5 75.5zM304 654
q-51 0 -86 -40.5t-35 -98.5q0 -62 41 -105.5t110 -43.5q49 0 86 24.5t37 81.5q0 65 -45.5 123.5t-107.5 58.5z" />
    <glyph glyph-name="colon" unicode=":" horiz-adv-x="211" 
d="M21 82q0 39 27.5 66.5t66.5 27.5t66.5 -27.5t27.5 -66.5t-27.5 -66.5t-66.5 -27.5t-66.5 27.5t-27.5 66.5zM21 399q0 39 27.5 66.5t66.5 27.5t66.5 -27.5t27.5 -66.5t-27.5 -66.5t-66.5 -27.5t-66.5 27.5t-27.5 66.5z" />
    <glyph glyph-name="semicolon" unicode=";" horiz-adv-x="234" 
d="M109 -74h-109l72 229h128zM54 399q0 39 27.5 66.5t66.5 27.5t66.5 -27.5t27.5 -66.5t-27.5 -66.5t-66.5 -27.5t-66.5 27.5t-27.5 66.5z" />
    <glyph glyph-name="less" unicode="&#x3c;" horiz-adv-x="654" 
d="M602 566v-115l-463 -186l463 -183v-118l-568 233v135z" />
    <glyph glyph-name="equal" unicode="=" horiz-adv-x="721" 
d="M645 433h-569v104h569v-104zM645 221h-569v104h569v-104z" />
    <glyph glyph-name="greater" unicode="&#x3e;" horiz-adv-x="654" 
d="M52 451v115l568 -234v-135l-568 -233v118l463 183z" />
    <glyph glyph-name="question" unicode="?" horiz-adv-x="522" 
d="M268 666q-46 0 -69.5 -29t-23.5 -77h-128q0 103 62 164.5t166 61.5q91 0 157 -59.5t66 -161.5q0 -47 -15.5 -85t-37 -60.5t-47.5 -38t-44 -21.5t-30 -8l-33 -110h-86v168l31 33q55 0 94.5 31.5t39.5 91.5q0 51 -29.5 75.5t-72.5 24.5zM151 65q0 39 27.5 66.5t66.5 27.5
t66.5 -27.5t27.5 -66.5t-27.5 -66.5t-66.5 -27.5t-66.5 27.5t-27.5 66.5z" />
    <glyph glyph-name="at" unicode="@" horiz-adv-x="986" 
d="M732 26q-48 0 -84 15.5t-48.5 28.5t-12.5 18q-55 -66 -141 -66q-75 0 -129 50t-54 128t55 123.5t131 45.5q36 0 68 -11t46 -22l14 -11v13q0 80 -113 80q-28 0 -56.5 -5t-43.5 -9l-14 -5l-26 92q71 26 161 26q108 0 156 -50t48 -156v-138q0 -29 9.5 -44t39.5 -15
q91 0 91 143q0 147 -95.5 242.5t-240.5 95.5q-144 0 -238.5 -95.5t-94.5 -240.5t95 -239.5t244 -94.5q77 0 148 36l35 -78q-89 -44 -181 -44q-187 0 -306 118.5t-119 301.5t118.5 301t301.5 118q184 0 301 -119.5t117 -300.5q0 -115 -49.5 -173.5t-132.5 -58.5zM575 199
q0 36 -31 57.5t-70 21.5q-40 0 -67.5 -23t-27.5 -57q0 -33 26 -55.5t67 -22.5q40 0 71.5 21.5t31.5 57.5z" />
    <glyph glyph-name="A" unicode="A" horiz-adv-x="691" 
d="M213 667v107h206l260 -774h-128l-69 203h-279l-68 -203h-130l229 667h-21zM241 322h203l-99 306z" />
    <glyph glyph-name="B" unicode="B" horiz-adv-x="629" 
d="M36 0v107h58v667h253q89 0 151.5 -47t62.5 -150q0 -61 -28.5 -96.5t-85.5 -58.5q148 -51 148 -200q0 -109 -71.5 -165.5t-187.5 -56.5h-300zM296 363h-68v-245h104q128 0 128 109q0 69 -47.5 102.5t-116.5 33.5zM319 656h-91v-182h77q122 0 122 97q0 85 -108 85z" />
    <glyph glyph-name="C" unicode="C" horiz-adv-x="789" 
d="M648 552v18q-77 96 -204 96q-111 0 -186.5 -79t-75.5 -200q0 -119 73 -199t189 -80q133 0 213 107l111 -69q-53 -74 -137.5 -116t-186.5 -42q-172 0 -284.5 117t-112.5 283t112.5 282t284.5 116q192 0 302 -127v-107h-98z" />
    <glyph glyph-name="D" unicode="D" horiz-adv-x="762" 
d="M42 0v107h58v667h210q109 0 200 -44t147.5 -133.5t56.5 -207.5q0 -176 -116.5 -282.5t-284.5 -106.5h-271zM313 655h-79v-536h95q108 0 179 73.5t71 193.5q0 123 -75.5 196t-190.5 73z" />
    <glyph glyph-name="E" unicode="E" horiz-adv-x="634" 
d="M587 0h-545v107h58v667h487v-119h-353v-197h216v-119h-216v-220h353v-119z" />
    <glyph glyph-name="F" unicode="F" horiz-adv-x="590" 
d="M42 667v107h548v-119h-356v-200h227v-120h-227v-335h-134v667h-58z" />
    <glyph glyph-name="G" unicode="G" horiz-adv-x="817" 
d="M649 290h-167v115h288v-274q-5 -6 -14 -15.5t-40.5 -34t-66.5 -43.5t-91 -34.5t-115 -15.5q-176 0 -292.5 117.5t-116.5 284.5q0 166 116 281t283 115q88 0 165.5 -36t133.5 -100l-101 -81q-38 45 -90 71.5t-110 26.5q-109 0 -185.5 -82.5t-76.5 -196.5
q0 -70 29.5 -130.5t96 -101.5t159.5 -41q42 0 77.5 8t56 19.5t35.5 23.5t21 20l5 8v96z" />
    <glyph glyph-name="H" unicode="H" horiz-adv-x="776" 
d="M42 0v107h58v667h134v-299h308v299h134v-774h-134v356h-308v-356h-192z" />
    <glyph glyph-name="I" unicode="I" horiz-adv-x="270" 
d="M10 667v107h192v-774h-134v667h-58z" />
    <glyph glyph-name="J" unicode="J" horiz-adv-x="571" 
d="M324 667v107h192v-512q0 -121 -67.5 -197.5t-187.5 -76.5q-89 0 -144.5 33t-103.5 91l99 80q33 -41 64 -57t76 -16q62 0 96 39.5t34 116.5v392h-58z" />
    <glyph glyph-name="K" unicode="K" horiz-adv-x="736" 
d="M43 0v107h58v667h134v-370l307 370h168l-298 -348l311 -426h-170l-236 326l-82 -96v-230h-192z" />
    <glyph glyph-name="L" unicode="L" horiz-adv-x="540" 
d="M234 774v-652h293v-122h-427v774h134z" />
    <glyph glyph-name="M" unicode="M" horiz-adv-x="917" 
d="M36 667v107h201l221 -361l222 361h140v-774h-131v558l-231 -360l-232 358v-556h-132v667h-58z" />
    <glyph glyph-name="N" unicode="N" horiz-adv-x="755" 
d="M32 667v107h238l264 -497v497h130v-774h-115l-328 603v-603h-131v667h-58z" />
    <glyph glyph-name="O" unicode="O" 
d="M446 -12q-173 0 -286 116.5t-113 282.5t113 282.5t286 116.5q172 0 285.5 -117t113.5 -283t-113 -282t-286 -116zM710 386q0 121 -77.5 200.5t-188.5 79.5t-186.5 -79.5t-75.5 -200.5q0 -119 73 -198.5t189 -79.5t191 80t75 198z" />
    <glyph glyph-name="P" unicode="P" horiz-adv-x="625" 
d="M43 667v107h254q60 0 112 -12.5t97.5 -39t71.5 -75.5t26 -116q0 -123 -81.5 -193t-198.5 -70h-89v-268h-134v667h-58zM317 655h-82v-268h69q69 0 117 32.5t48 104.5q0 68 -42.5 99.5t-109.5 31.5z" />
    <glyph glyph-name="Q" unicode="Q" 
d="M729 0l-53 52q-91 -64 -230 -64q-173 0 -286 116.5t-113 282.5t113 282.5t286 116.5q172 0 285.5 -117t113.5 -283q0 -141 -84 -252l28 -27h58v-107h-118zM710 387q0 121 -77.5 200t-188.5 79t-186.5 -79t-75.5 -200q0 -119 73 -201t189 -82q83 0 139 39l-48 48l81 86
l50 -50q44 69 44 160z" />
    <glyph glyph-name="R" unicode="R" horiz-adv-x="660" 
d="M42 667v107h322q247 0 247 -196q0 -75 -34 -115t-93 -61q101 -9 101 -161q0 -65 10.5 -125t20.5 -88l10 -28h-126q-3 1 -8 7.5t-15.5 52.5t-14.5 123q-2 39 -4 56.5t-9.5 42.5t-21 35.5t-38.5 18.5t-62 8h-93v-344h-134v667h-58zM363 655h-129v-195h147q8 0 16.5 1
t24.5 6.5t27.5 14.5t20.5 28.5t9 46.5q0 98 -116 98z" />
    <glyph glyph-name="S" unicode="S" horiz-adv-x="652" 
d="M623 232q0 -109 -75.5 -176.5t-210.5 -67.5q-193 0 -308 131l94 86q90 -100 215 -100q76 0 115.5 28t39.5 81q0 23 -9 41t-21.5 29.5t-42 23.5t-53.5 19.5t-73 20.5q-112 31 -154 56q-86 52 -86 155q0 104 76 165.5t193 61.5q153 0 276 -109l-91 -93q-90 82 -190 82
q-133 0 -133 -94q0 -47 38 -68t145 -48q116 -29 159 -54q96 -55 96 -170z" />
    <glyph glyph-name="T" unicode="T" horiz-adv-x="571" 
d="M463 594v58h-110v-652h-134v652h-111v-58h-108v180h571v-180h-108z" />
    <glyph glyph-name="U" unicode="U" horiz-adv-x="719" 
d="M31 667v107h192v-516q0 -71 34.5 -109.5t98.5 -38.5q65 0 102.5 39t37.5 110v515h134v-528q0 -121 -77.5 -189.5t-192.5 -68.5q-116 0 -193.5 68.5t-77.5 189.5v421h-58z" />
    <glyph glyph-name="V" unicode="V" horiz-adv-x="590" 
d="M-18 667v107h166l160 -530l137 530h140l-222 -776h-107l-216 669h-58z" />
    <glyph glyph-name="W" unicode="W" horiz-adv-x="992" 
d="M-11 667v107h162l156 -523l160 523h60l163 -529l154 529h135l-235 -776h-96l-152 482l-151 -482h-89l-209 669h-58z" />
    <glyph glyph-name="X" unicode="X" horiz-adv-x="738" 
d="M20 667v107h156l194 -283l195 283h154l-270 -378l205 -289h76v-107h-158l-206 297l-205 -297h-153l279 394l-192 273h-75z" />
    <glyph glyph-name="Y" unicode="Y" horiz-adv-x="731" 
d="M8 667v107h158l200 -343l204 343h153l-291 -465v-309h-134v306l-224 361h-66z" />
    <glyph glyph-name="Z" unicode="Z" horiz-adv-x="579" 
d="M554 0h-533v99l374 556h-361v119h524v-90l-379 -565h268v58h107v-177z" />
    <glyph glyph-name="bracketleft" unicode="[" horiz-adv-x="352" 
d="M55 -116v890h246v-92h-124v-709h124v-89h-246z" />
    <glyph glyph-name="backslash" unicode="\" horiz-adv-x="323" 
d="M88 831l240 -893h-90l-243 893h93z" />
    <glyph glyph-name="bracketright" unicode="]" horiz-adv-x="352" 
d="M297 774v-890h-246v89h124v709h-124v92h246z" />
    <glyph glyph-name="asciicircum" unicode="^" horiz-adv-x="428" 
d="M5 531l163 234h92l163 -234h-100l-110 152l-110 -152h-98z" />
    <glyph glyph-name="underscore" unicode="_" horiz-adv-x="636" 
d="M0 -132v102h636v-102h-636z" />
    <glyph glyph-name="grave" unicode="`" horiz-adv-x="248" 
d="M146 779l78 -186h-100l-125 168z" />
    <glyph glyph-name="a" unicode="a" horiz-adv-x="655" 
d="M466 0v76q-38 -48 -83.5 -68t-108.5 -20q-101 0 -170.5 83t-69.5 195t70.5 194.5t181.5 82.5q106 0 179 -94l6 82h120v-424h58v-107h-183zM465 265q0 67 -43.5 114.5t-110.5 47.5q-66 0 -106.5 -47t-40.5 -115q0 -66 38.5 -113.5t104.5 -47.5t112 45.5t46 115.5z" />
    <glyph glyph-name="b" unicode="b" horiz-adv-x="671" 
d="M31 667v107h186v-305q68 74 165 74q107 0 178 -82.5t71 -199.5q0 -118 -73 -195.5t-180 -77.5t-173 85l-6 -73h-110v667h-58zM503 268q0 64 -40 112t-107 48t-108 -49t-41 -116q0 -68 42.5 -113.5t109.5 -45.5q66 0 105 46.5t39 117.5z" />
    <glyph glyph-name="c" unicode="c" horiz-adv-x="560" 
d="M426 297v36q-35 95 -126 95q-64 0 -100.5 -47t-36.5 -116t36 -115t100 -46q92 0 126 90l104 -67q-75 -139 -227 -139q-116 0 -192 78.5t-76 198.5q0 121 76.5 199.5t191.5 78.5q149 0 228 -139v-107h-104z" />
    <glyph glyph-name="d" unicode="d" horiz-adv-x="665" 
d="M466 0l-6 73q-66 -85 -173 -85t-180 77.5t-73 195.5q0 117 71 199.5t178 82.5q97 0 165 -74v305h128v-667h58v-107h-168zM164 268q0 -71 39 -117.5t106 -46.5q66 0 107.5 45.5t41.5 113.5q0 67 -39.5 115.5t-106.5 48.5t-106.5 -47t-41.5 -112z" />
    <glyph glyph-name="e" unicode="e" horiz-adv-x="593" 
d="M413 148l81 -77q-74 -83 -198 -83q-118 0 -190 78t-72 190q0 121 72.5 204t191.5 83q122 0 191.5 -82t69.5 -199q0 -18 -2 -38h-396q0 -5 1 -13t8 -29t20 -37t41.5 -29t66.5 -13q68 0 115 45zM296 429q-104 0 -135 -111h272q-15 54 -50.5 82.5t-86.5 28.5z" />
    <glyph glyph-name="f" unicode="f" horiz-adv-x="315" 
d="M88 0v421h-78v110h78v49q0 194 189 194h26v-106l-16 -2q-48 -6 -60 -26.5t-12 -83.5v-25h85v-112h-84v-419h-128z" />
    <glyph glyph-name="g" unicode="g" horiz-adv-x="652" 
d="M586 424v-412q0 -109 -67.5 -173.5t-204.5 -64.5q-71 0 -134 18t-90 36l-27 17l51 106q8 -7 22.5 -17.5t63.5 -28t102 -17.5q82 0 119 36.5t37 97.5v41q-68 -75 -172 -75q-110 0 -181 77t-71 194q0 73 28.5 136.5t88 105.5t139.5 42q59 0 98 -23t77 -66l6 77h173v-107
h-58zM459 258q0 74 -41 121.5t-105 47.5q-67 0 -108 -50.5t-41 -117.5t42 -111t112 -44q67 0 104 42.5t37 111.5z" />
    <glyph glyph-name="h" unicode="h" horiz-adv-x="620" 
d="M437 0v339q0 88 -70 88q-56 0 -149 -64v-363h-128v774h128v-311q67 46 105.5 63t80.5 17q45 0 78 -16.5t50 -44.5t25 -59.5t8 -68.5v-247h58v-107h-186z" />
    <glyph glyph-name="i" unicode="i" horiz-adv-x="290" 
d="M23 424v107h186v-531h-128v424h-58zM81 630v144h128v-144h-128z" />
    <glyph glyph-name="j" unicode="j" horiz-adv-x="306" 
d="M39 424v107h186v-532q0 -109 -53.5 -164.5t-142.5 -55.5q-16 0 -21 1v111q89 0 89 105v428h-58zM97 630v144h128v-144h-128z" />
    <glyph glyph-name="k" unicode="k" horiz-adv-x="623" 
d="M34 667v107h186v-470l231 227h164l-213 -208l209 -323h-162l-141 229l-88 -80v-149h-128v667h-58z" />
    <glyph glyph-name="l" unicode="l" horiz-adv-x="306" 
d="M89 0v774h128v-667h58v-107h-186z" />
    <glyph glyph-name="m" unicode="m" horiz-adv-x="947" 
d="M739 0v352q0 33 -18 54t-56 21q-23 0 -45 -10.5t-36.5 -22t-42.5 -36.5v-358h-128v361q0 30 -22 48t-57 18q-33 0 -57.5 -15.5t-64.5 -52.5v-359h-128v531h117l6 -69q56 45 93 63t82 18q50 0 81.5 -21.5t56.5 -64.5q67 49 106.5 67.5t79.5 18.5q74 0 117.5 -48t43.5 -120
v-268h58v-107h-186z" />
    <glyph glyph-name="n" unicode="n" horiz-adv-x="636" 
d="M430 0v350q0 32 -23.5 54.5t-60.5 22.5q-30 0 -57.5 -15.5t-76.5 -53.5v-358h-128v531h120l6 -71q53 36 74 49t49.5 23.5t58.5 10.5q85 0 126.5 -48t41.5 -120v-268h58v-107h-188z" />
    <glyph glyph-name="o" unicode="o" horiz-adv-x="633" 
d="M315 -12q-115 0 -198 80t-83 198q0 116 84.5 196.5t197.5 80.5q121 0 202 -79.5t81 -197.5q0 -120 -80.5 -199t-203.5 -79zM469 265q0 67 -42 114.5t-110 47.5t-110.5 -48t-42.5 -114q0 -67 42.5 -114t110.5 -47t110 47t42 114z" />
    <glyph glyph-name="p" unicode="p" horiz-adv-x="670" 
d="M31 -214v107h58v638h109l6 -75q76 87 176 87q109 0 179.5 -80t70.5 -205q0 -120 -74.5 -195t-179.5 -75q-91 0 -159 71v-273h-186zM352 103q68 1 109 48.5t41 113.5t-40 114.5t-104 48.5q-63 0 -106 -47t-43 -118q0 -66 38 -112.5t105 -47.5z" />
    <glyph glyph-name="q" unicode="q" horiz-adv-x="666" 
d="M457 -214v273q-68 -71 -159 -71q-105 0 -179.5 75t-74.5 195q0 125 71 205t179 80q100 0 176 -87l6 75h109v-638h58v-107h-186zM322 103q67 1 105 47.5t38 112.5q0 71 -43 118t-106 47q-64 0 -104 -48.5t-40 -114.5t41 -113.5t109 -48.5z" />
    <glyph glyph-name="r" unicode="r" horiz-adv-x="367" 
d="M18 424v107h183l6 -89q42 101 157 101v-117h-19q-72 0 -105 -50.5t-33 -129.5v-246h-131v424h-58z" />
    <glyph glyph-name="s" unicode="s" horiz-adv-x="511" 
d="M270 -12q-127 0 -231 81l59 96q96 -71 173 -71q39 0 63 17t24 42q0 29 -30.5 44t-83.5 25q-179 34 -179 158q0 79 55 121t141 42q107 0 199 -63l-51 -96q-78 54 -150 54q-36 0 -57 -12t-21 -34q0 -27 28 -42.5t82 -26.5q38 -8 64.5 -17t57 -27.5t47 -50t16.5 -74.5
q0 -84 -57 -125t-149 -41z" />
    <glyph glyph-name="t" unicode="t" horiz-adv-x="358" 
d="M357 0h-143q-66 0 -97 27.5t-31 97.5v294h-78v112h77v166h129v-166h81v-112h-81v-258q0 -36 11 -46.5t53 -10.5h79v-104z" />
    <glyph glyph-name="u" unicode="u" horiz-adv-x="625" 
d="M428 0l-6 63q-59 -42 -101 -58.5t-89 -16.5q-157 0 -157 175v368h128v-329q0 -52 16.5 -75t60.5 -23q61 0 135 82v345h128v-424h58v-107h-173z" />
    <glyph glyph-name="v" unicode="v" horiz-adv-x="553" 
d="M510 424l-178 -426h-117l-217 533h138l140 -345l135 345h157v-107h-58z" />
    <glyph glyph-name="w" unicode="w" horiz-adv-x="834" 
d="M397 531h40l144 -366l136 366h148v-107h-58l-157 -426h-115l-118 296l-118 -296h-115l-197 533h130l136 -366z" />
    <glyph glyph-name="x" unicode="x" horiz-adv-x="539" 
d="M-2 424v107h154l118 -173l119 173h151l-187 -259l117 -165h78v-107h-154l-127 183l-125 -183h-151l193 271l-109 153h-77z" />
    <glyph glyph-name="y" unicode="y" horiz-adv-x="575" 
d="M-14 424v107h150l138 -382l167 382h135l-345 -745h-136l108 224l-159 414h-58z" />
    <glyph glyph-name="z" unicode="z" horiz-adv-x="518" 
d="M484 0h-450v106l290 322h-280v103h427v-109l-282 -318h188v58h107v-162z" />
    <glyph glyph-name="braceleft" unicode="{" horiz-adv-x="431" 
d="M376 -56v-91q-138 26 -190.5 77.5t-52.5 139.5q0 11 1 37.5t1 38.5q0 71 -28 100t-99 29v99q70 0 98.5 29t28.5 97q0 11 -1 38t-1 38q0 89 53.5 141t189.5 79v-92q-75 -24 -98.5 -55.5t-23.5 -87.5q0 -12 1 -39.5t1 -37.5q0 -68 -28 -103t-93 -57q62 -20 91.5 -55.5
t29.5 -98.5q0 -9 -1 -37t-1 -40q0 -59 25 -91.5t97 -57.5z" />
    <glyph glyph-name="bar" unicode="|" horiz-adv-x="367" 
d="M131 -194v968h105v-968h-105z" />
    <glyph glyph-name="braceright" unicode="}" horiz-adv-x="431" 
d="M55 -147v91q72 25 97 57.5t25 91.5q0 12 -1 40t-1 37q0 63 29.5 98.5t91.5 55.5q-65 22 -93 57t-28 103q0 10 1 37.5t1 39.5q0 56 -23.5 87.5t-98.5 55.5v92q136 -27 189.5 -79t53.5 -141q0 -11 -1 -38t-1 -38q0 -68 28.5 -97t98.5 -29v-99q-71 0 -99 -29t-28 -100
q0 -12 1 -38.5t1 -37.5q0 -88 -52.5 -139.5t-190.5 -77.5z" />
    <glyph glyph-name="asciitilde" unicode="~" horiz-adv-x="622" 
d="M468 470l78 -40q-56 -141 -147 -141q-34 0 -70.5 18t-65.5 36t-45 18q-28 0 -64 -71l-78 40q28 69 63 105t84 36q34 0 67 -18t61 -36t49 -18q18 0 32.5 15t35.5 56z" />
    <glyph glyph-name="nbspace" unicode="&#xa0;" horiz-adv-x="638" 
 />
    <glyph glyph-name="exclamdown" unicode="&#xa1;" horiz-adv-x="276" 
d="M75 -93l28 557h94l31 -557h-153zM55 613q0 39 27 66t66 27t66.5 -27t27.5 -66t-27.5 -66.5t-66.5 -27.5t-66 27.5t-27 66.5z" />
    <glyph glyph-name="cent" unicode="&#xa2;" horiz-adv-x="598" 
d="M268 153v67q-104 17 -169 94t-65 184q0 106 64.5 181.5t169.5 90.5v69h93v-68q67 -10 119.5 -45t83.5 -90l-103 -71q-25 70 -100 92v-312q75 20 99 79l103 -65q-31 -55 -84 -92t-118 -47v-67h-93zM163 500q0 -52 29 -94.5t76 -58.5v308q-48 -16 -76.5 -59.5t-28.5 -95.5z
" />
    <glyph glyph-name="sterling" unicode="&#xa3;" horiz-adv-x="583" 
d="M141 339h-101v89h83q-20 82 -20 136q0 89 47.5 149.5t149.5 60.5q47 0 83.5 -14.5t57 -36.5t33.5 -50.5t17.5 -53t4.5 -48.5v-13h-123q-3 43 -20.5 75.5t-56.5 32.5q-34 0 -53 -27t-19 -67q0 -59 28 -143h124v-91h-110l5 -45q0 -23 -0.5 -37t-4 -37t-10.5 -38.5
t-20.5 -32t-32.5 -26.5h133q43 0 62 25.5t19 62.5h121v-9q0 -21 -4 -44.5t-15 -52t-29 -51t-48.5 -38t-70.5 -15.5h-332v133q56 11 83.5 43.5t27.5 101.5q0 28 -9 61z" />
    <glyph glyph-name="currency" unicode="&#xa4;" horiz-adv-x="633" 
d="M316 -14q-102 0 -176 57l-55 -55l-55 55l55 55q-51 71 -51 168q0 100 56 172l-60 61l55 55l61 -62q71 51 170 51q95 0 166 -48l59 59l55 -55l-57 -57q60 -74 60 -176q0 -99 -55 -171l52 -52l-55 -55l-53 52q-75 -54 -172 -54zM467 266q0 67 -41 114.5t-109 47.5
t-109.5 -47.5t-41.5 -114.5t41 -112t110 -45q68 0 109 45t41 112z" />
    <glyph glyph-name="yen" unicode="&#xa5;" horiz-adv-x="731" 
d="M98 175v91h200v40l-31 52h-186v91h133l-189 325h158l183 -343l187 343h153l-192 -325h136v-91h-189l-29 -49v-43h201v-91h-201v-175h-134v175h-200z" />
    <glyph glyph-name="brokenbar" unicode="&#xa6;" horiz-adv-x="292" 
d="M92 339v435h105v-435h-105zM92 -194v435h105v-435h-105z" />
    <glyph glyph-name="section" unicode="&#xa7;" horiz-adv-x="525" 
d="M66 383q0 78 63 125q-63 44 -63 116q0 74 55.5 118t139.5 44q108 0 199 -62l-51 -91q-85 52 -152 52q-35 0 -54 -13.5t-19 -35.5q0 -19 16 -32.5t34 -20t57 -17.5q31 -9 50.5 -15.5t47 -21t43.5 -30.5t28 -42.5t12 -59.5q0 -80 -60 -125q60 -43 60 -118q0 -78 -57 -122
t-145 -44q-126 0 -231 82l59 85q87 -64 173 -64q83 0 83 51q0 28 -27 43.5t-83 31.5q-29 9 -49 16t-46.5 21t-43 30.5t-28 42t-11.5 56.5zM184 395q0 -26 22.5 -45t56.5 -19h8q40 0 61.5 14.5t21.5 39.5q0 34 -49 54q-30 7 -49 7q-34 0 -53 -14t-19 -37z" />
    <glyph glyph-name="dieresis" unicode="&#xa8;" horiz-adv-x="371" 
d="M235 593v122h110v-122h-110zM26 593v122h110v-122h-110z" />
    <glyph glyph-name="copyright" unicode="&#xa9;" horiz-adv-x="707" 
d="M352 50q92 0 154.5 64t62.5 155q0 90 -62 153.5t-152 63.5q-92 0 -154.5 -64t-62.5 -155t61.5 -154t152.5 -63zM353 -12q-115 0 -196 82t-81 195q0 114 81 196t196 82q116 0 197 -81.5t81 -194.5q0 -114 -81 -196.5t-197 -82.5zM436 334v7q-29 38 -81 38q-44 0 -74 -31
t-30 -79t28.5 -79.5t75.5 -31.5q53 0 85 42l43 -27q-44 -64 -128 -64q-69 0 -113.5 46.5t-44.5 113.5q0 66 44.5 112t113.5 46q75 0 120 -51v-42h-39z" />
    <glyph glyph-name="ordfeminine" unicode="&#xaa;" horiz-adv-x="365" 
d="M68 343v68h272v-68h-272zM281 453v45q-41 -52 -113 -52q-60 0 -101 49t-41 115t42 115t107 49q62 0 106 -56l3 49h71v-251h35v-63h-109zM281 610q0 39 -25.5 67t-65.5 28q-39 0 -63 -27.5t-24 -67.5q0 -39 22.5 -67.5t61.5 -28.5t66.5 27t27.5 69z" />
    <glyph glyph-name="guillemotleft" unicode="&#xab;" horiz-adv-x="593" 
d="M274 346l139 185h152l-139 -185l139 -185h-152zM8 346l139 185h152l-139 -185l139 -185h-152z" />
    <glyph glyph-name="logicalnot" unicode="&#xac;" horiz-adv-x="695" 
d="M492 115v199h-416v126h543v-325h-127z" />
    <glyph glyph-name="registered" unicode="&#xae;" horiz-adv-x="665" 
d="M310 292q92 0 154.5 64t62.5 155q0 90 -62 153.5t-152 63.5q-92 0 -154.5 -64t-62.5 -155t61.5 -154t152.5 -63zM311 230q-115 0 -196 82t-81 195q0 114 81 196t196 82q116 0 197 -81.5t81 -194.5q0 -114 -81 -196.5t-197 -82.5zM197 626v43h118q108 0 108 -84
q0 -33 -16 -55.5t-40 -31.5l77 -140h-60l-66 126h-44v-126h-54v268h-23zM274 532h48q46 0 46 46q0 22 -12 32.5t-42 10.5h-40v-89z" />
    <glyph glyph-name="macron" unicode="&#xaf;" horiz-adv-x="348" 
d="M30 599v91h288v-91h-288z" />
    <glyph glyph-name="degree" unicode="&#xb0;" horiz-adv-x="430" 
d="M200 384q-81 0 -139.5 58t-58.5 140q0 80 57 138.5t137 58.5t138.5 -58t58.5 -139q0 -80 -56.5 -138.5t-136.5 -59.5zM293 584q-2 39 -29 66.5t-65 27.5q-39 0 -68.5 -28t-29.5 -68t29.5 -69t68.5 -29t66.5 29.5t27.5 70.5z" />
    <glyph glyph-name="plusminus" unicode="&#xb1;" horiz-adv-x="711" 
d="M301 326h-225v110h227v210h110v-210h222v-110h-222v-211h-112v211zM635 -66h-559v110h559v-110z" />
    <glyph glyph-name="twosuperior" unicode="&#xb2;" horiz-adv-x="353" 
d="M34 478q-4 28 -4 40q0 47 21.5 85.5t52 63.5t61 47t52 45.5t21.5 48.5q0 29 -19.5 44t-46.5 15q-24 0 -45.5 -13.5t-30.5 -27.5l-10 -13l-57 38q2 3 5.5 9t16.5 20.5t28.5 25.5t41.5 20t55 9q59 0 98.5 -31.5t39.5 -95.5q0 -36 -20 -67.5t-49 -54t-57.5 -43t-49 -45.5
t-21.5 -52h207v-68h-290z" />
    <glyph glyph-name="threesuperior" unicode="&#xb3;" horiz-adv-x="363" 
d="M29 526l39 58q47 -42 101 -42q37 0 60 23t23 56q0 34 -24.5 58.5t-71.5 24.5h-36l-27 39l96 94l33 23h-174v66h269v-48l-116 -114q49 -8 88.5 -48t39.5 -95q0 -59 -44 -104.5t-114 -45.5q-37 0 -72.5 13.5t-52.5 27.5z" />
    <glyph glyph-name="acute" unicode="&#xb4;" horiz-adv-x="248" 
d="M23 593l78 186l147 -18l-125 -168h-100z" />
    <glyph glyph-name="mu" unicode="&#xb5;" horiz-adv-x="626" 
d="M428 0l-6 63q-62 -44 -103 -60.5t-85 -16.5q-30 0 -53 6v-206h-105v745h127v-321q0 -41 18 -69.5t59 -28.5q61 0 135 82v337h130v-424h58v-107h-175z" />
    <glyph glyph-name="paragraph" unicode="&#xb6;" horiz-adv-x="758" 
d="M345 -214v460h-24q-129 0 -208 74t-79 191q0 113 73.5 188.5t196.5 75.5h146v-989h-105zM520 -214v988h138v-988h-138z" />
    <glyph glyph-name="periodcentered" unicode="&#xb7;" horiz-adv-x="298" 
d="M55 266q0 39 27.5 66.5t66.5 27.5t66.5 -27.5t27.5 -66.5t-27.5 -66.5t-66.5 -27.5t-66.5 27.5t-27.5 66.5z" />
    <glyph glyph-name="cedilla" unicode="&#xb8;" horiz-adv-x="280" 
d="M14 -201v52q16 -7 49 -14.5t50 -7.5q23 0 40 13.5t17 31.5t-17 28t-34 10l-17 -2l-19 13l50 107h52l-34 -80q12 3 24 3q33 0 60 -20t27 -57q0 -43 -38 -69.5t-91 -26.5q-67 0 -119 19z" />
    <glyph glyph-name="onesuperior" unicode="&#xb9;" horiz-adv-x="193" 
d="M31 478v63h35v329l-32 -14l-16 52l50 21h73v-388h36v-63h-146z" />
    <glyph glyph-name="ordmasculine" unicode="&#xba;" horiz-adv-x="410" 
d="M51 343v68h272v-68h-272zM187 445q-71 0 -118.5 48.5t-47.5 118.5q0 69 47 115.5t119 46.5t120 -46t48 -116q0 -71 -48.5 -119t-119.5 -48zM277 611q0 41 -24 69t-64 28t-65 -28.5t-25 -67.5t25 -67t67 -28q40 0 63 27t23 67z" />
    <glyph glyph-name="guillemotright" unicode="&#xbb;" horiz-adv-x="593" 
d="M180 531l139 -185l-139 -185h-152l139 185l-139 185h152zM446 531l139 -185l-139 -185h-152l139 185l-139 185h152z" />
    <glyph glyph-name="onequarter" unicode="&#xbc;" horiz-adv-x="808" 
d="M374 114v46l201 292h90v-275h54v-63h-54v-114h-75v114h-216zM464 177h128v194l-21 -38zM34 323v63h35v329l-32 -14l-16 52l50 21h73v-388h36v-63h-146zM45 0l525 774h99l-525 -774h-99z" />
    <glyph glyph-name="onehalf" unicode="&#xbd;" horiz-adv-x="832" 
d="M452 0q-4 28 -4 41q0 46 21.5 84t52 63.5t61.5 47t52.5 45.5t21.5 49q0 27 -20 41t-47 14q-24 0 -45 -12.5t-31 -24.5l-9 -13l-57 38q2 3 5.5 9t16.5 20.5t28.5 25.5t41.5 20t55 9q58 0 99.5 -32t41.5 -91q0 -39 -20.5 -72t-50 -56t-59 -44t-50.5 -46t-22 -51h209v-65
h-291zM34 323v63h35v329l-32 -14l-16 52l50 21h73v-388h36v-63h-146zM25 0l525 774h99l-525 -774h-99z" />
    <glyph glyph-name="threequarters" unicode="&#xbe;" horiz-adv-x="908" 
d="M21 374l39 58q47 -42 101 -42q37 0 60 23t23 56q0 34 -24.5 58.5t-71.5 24.5h-36l-27 39l96 94l33 23h-174v66h269v-48l-116 -114q49 -8 88.5 -48t39.5 -95q0 -59 -44 -104.5t-114 -45.5q-37 0 -72.5 13.5t-52.5 27.5zM474 114v46l201 292h90v-275h54v-63h-54v-114h-75
v114h-216zM564 177h128v194l-21 -38zM137 0l525 774h99l-525 -774h-99z" />
    <glyph glyph-name="questiondown" unicode="&#xbf;" horiz-adv-x="522" 
d="M254 14q46 0 69.5 29t23.5 77h128q0 -103 -62 -164.5t-166 -61.5q-91 0 -157 59.5t-66 161.5q0 47 15.5 85t37 60.5t47.5 38t44 21.5t30 8l33 110h86v-168l-31 -33q-55 0 -94.5 -31.5t-39.5 -91.5q0 -51 29.5 -75.5t72.5 -24.5zM371 615q0 -39 -27.5 -66.5t-66.5 -27.5
t-66.5 27.5t-27.5 66.5t27.5 66.5t66.5 27.5t66.5 -27.5t27.5 -66.5z" />
    <glyph glyph-name="Agrave" unicode="&#xc0;" horiz-adv-x="691" 
d="M213 667v107h206l260 -774h-128l-69 203h-279l-68 -203h-130l229 667h-21zM241 322h203l-99 306zM320 1025l78 -186h-100l-125 168z" />
    <glyph glyph-name="Aacute" unicode="&#xc1;" horiz-adv-x="691" 
d="M213 667v107h206l260 -774h-128l-69 203h-279l-68 -203h-130l229 667h-21zM241 322h203l-99 306zM301 839l78 186l147 -18l-125 -168h-100z" />
    <glyph glyph-name="Acircumflex" unicode="&#xc2;" horiz-adv-x="691" 
d="M213 667v107h206l260 -774h-128l-69 203h-279l-68 -203h-130l229 667h-21zM241 322h203l-99 306zM158 839l120 179h132l122 -179h-109l-77 102l-79 -102h-109z" />
    <glyph glyph-name="Atilde" unicode="&#xc3;" horiz-adv-x="691" 
d="M213 667v107h206l260 -774h-128l-69 203h-279l-68 -203h-130l229 667h-21zM241 322h203l-99 306zM428 831q-36 0 -87.5 24t-69.5 24q-15 0 -26 -9t-17 -19.5t-16 -33.5l-73 22q19 68 46.5 99.5t73.5 31.5q36 0 88.5 -24t69.5 -24q15 0 26 9t17 19.5t16 33.5l73 -21
q-19 -68 -46.5 -100t-74.5 -32z" />
    <glyph glyph-name="Adieresis" unicode="&#xc4;" horiz-adv-x="691" 
d="M213 667v107h206l260 -774h-128l-69 203h-279l-68 -203h-130l229 667h-21zM241 322h203l-99 306zM394 839v122h110v-122h-110zM185 839v122h110v-122h-110z" />
    <glyph glyph-name="Aring" unicode="&#xc5;" horiz-adv-x="691" 
d="M213 667v107h25q-14 26 -14 58q0 51 35.5 87.5t85.5 36.5t86 -37t36 -87t-38 -88l250 -744h-128l-69 203h-279l-68 -203h-130l229 667h-21zM241 322h203l-99 306zM399 832q0 23 -16 39.5t-38 16.5t-37.5 -16.5t-15.5 -39.5t15.5 -39.5t37.5 -16.5q23 0 38.5 17t15.5 39z
" />
    <glyph glyph-name="AE" unicode="&#xc6;" horiz-adv-x="885" 
d="M213 667v107h526v-108h-275l65 -193h237v-121h-197l82 -244h229v-108h-329l-73 215h-271l-72 -215h-130l229 667h-21zM241 322h203l-100 306z" />
    <glyph glyph-name="Ccedilla" unicode="&#xc7;" horiz-adv-x="789" 
d="M270 -201v52q16 -7 49 -14.5t50 -7.5q23 0 40 13.5t17 31.5t-17 28t-34 10l-17 -2l-19 13l33 71q-145 24 -235 135.5t-90 258.5q0 166 112.5 282t284.5 116q192 0 302 -127v-107h-98v18q-77 96 -204 96q-111 0 -186.5 -79t-75.5 -200q0 -119 73 -199t189 -80
q133 0 213 107l111 -69q-53 -74 -137.5 -116t-186.5 -42q-14 0 -21 1l-16 -39q12 3 24 3q33 0 60 -20t27 -57q0 -43 -38 -69.5t-91 -26.5q-67 0 -119 19z" />
    <glyph glyph-name="Egrave" unicode="&#xc8;" horiz-adv-x="634" 
d="M587 0h-545v107h58v667h487v-119h-353v-197h216v-119h-216v-220h353v-119zM322 1025l78 -186h-100l-125 168z" />
    <glyph glyph-name="Eacute" unicode="&#xc9;" horiz-adv-x="634" 
d="M587 0h-545v107h58v667h487v-119h-353v-197h216v-119h-216v-220h353v-119zM278 839l78 186l147 -18l-125 -168h-100z" />
    <glyph glyph-name="Ecircumflex" unicode="&#xca;" horiz-adv-x="634" 
d="M587 0h-545v107h58v667h487v-119h-353v-197h216v-119h-216v-220h353v-119zM154 839l120 179h132l122 -179h-109l-77 102l-79 -102h-109z" />
    <glyph glyph-name="Edieresis" unicode="&#xcb;" horiz-adv-x="634" 
d="M587 0h-545v107h58v667h487v-119h-353v-197h216v-119h-216v-220h353v-119zM392 839v122h110v-122h-110zM183 839v122h110v-122h-110z" />
    <glyph glyph-name="Igrave" unicode="&#xcc;" horiz-adv-x="270" 
d="M10 667v107h192v-774h-134v667h-58zM104 1025l78 -186h-100l-125 168z" />
    <glyph glyph-name="Iacute" unicode="&#xcd;" horiz-adv-x="270" 
d="M10 667v107h192v-774h-134v667h-58zM77 839l78 186l147 -18l-125 -168h-100z" />
    <glyph glyph-name="Icircumflex" unicode="&#xce;" horiz-adv-x="270" 
d="M10 667v107h192v-774h-134v667h-58zM-76 839l120 179h132l122 -179h-109l-77 102l-79 -102h-109z" />
    <glyph glyph-name="Idieresis" unicode="&#xcf;" horiz-adv-x="270" 
d="M10 667v107h192v-774h-134v667h-58zM165 839v122h110v-122h-110zM-44 839v122h110v-122h-110z" />
    <glyph glyph-name="Eth" unicode="&#xd0;" horiz-adv-x="754" 
d="M42 0v107h58v242h-52v106h52v319h210q109 0 200 -44t148 -133.5t57 -207.5q0 -176 -117 -282.5t-285 -106.5h-271zM313 668h-77v-213h78v-106h-78v-235h93q108 0 178.5 75.5t70.5 196.5q0 125 -75.5 203.5t-189.5 78.5z" />
    <glyph glyph-name="Ntilde" unicode="&#xd1;" horiz-adv-x="755" 
d="M32 667v107h238l264 -497v497h130v-774h-115l-328 603v-603h-131v667h-58zM459 829q-36 0 -87.5 24t-69.5 24q-15 0 -26 -9t-17 -19.5t-16 -33.5l-73 22q19 68 46.5 99.5t73.5 31.5q36 0 88.5 -24t69.5 -24q15 0 26 9t17 19.5t16 33.5l73 -21q-19 -68 -46.5 -100
t-74.5 -32z" />
    <glyph glyph-name="Ograve" unicode="&#xd2;" 
d="M446 -12q-173 0 -286 116.5t-113 282.5t113 282.5t286 116.5q172 0 285.5 -117t113.5 -283t-113 -282t-286 -116zM710 386q0 121 -77.5 200.5t-188.5 79.5t-186.5 -79.5t-75.5 -200.5q0 -119 73 -198.5t189 -79.5t191 80t75 198zM414 1025l78 -186h-100l-125 168z" />
    <glyph glyph-name="Oacute" unicode="&#xd3;" 
d="M446 -12q-173 0 -286 116.5t-113 282.5t113 282.5t286 116.5q172 0 285.5 -117t113.5 -283t-113 -282t-286 -116zM710 386q0 121 -77.5 200.5t-188.5 79.5t-186.5 -79.5t-75.5 -200.5q0 -119 73 -198.5t189 -79.5t191 80t75 198zM397 839l78 186l147 -18l-125 -168h-100z
" />
    <glyph glyph-name="Ocircumflex" unicode="&#xd4;" 
d="M446 -12q-173 0 -286 116.5t-113 282.5t113 282.5t286 116.5q172 0 285.5 -117t113.5 -283t-113 -282t-286 -116zM710 386q0 121 -77.5 200.5t-188.5 79.5t-186.5 -79.5t-75.5 -200.5q0 -119 73 -198.5t189 -79.5t191 80t75 198zM255 839l120 179h132l122 -179h-109
l-77 102l-79 -102h-109z" />
    <glyph glyph-name="Otilde" unicode="&#xd5;" 
d="M446 -12q-173 0 -286 116.5t-113 282.5t113 282.5t286 116.5q172 0 285.5 -117t113.5 -283t-113 -282t-286 -116zM710 386q0 121 -77.5 200.5t-188.5 79.5t-186.5 -79.5t-75.5 -200.5q0 -119 73 -198.5t189 -79.5t191 80t75 198zM535 833q-36 0 -87.5 24t-69.5 24
q-15 0 -26 -9t-17 -19.5t-16 -33.5l-73 22q19 68 46.5 99.5t73.5 31.5q36 0 88.5 -24t69.5 -24q15 0 26 9t17 19.5t16 33.5l73 -21q-19 -68 -46.5 -100t-74.5 -32z" />
    <glyph glyph-name="Odieresis" unicode="&#xd6;" 
d="M446 -12q-173 0 -286 116.5t-113 282.5t113 282.5t286 116.5q172 0 285.5 -117t113.5 -283t-113 -282t-286 -116zM710 386q0 121 -77.5 200.5t-188.5 79.5t-186.5 -79.5t-75.5 -200.5q0 -119 73 -198.5t189 -79.5t191 80t75 198zM493 839v122h110v-122h-110zM284 839v122
h110v-122h-110z" />
    <glyph glyph-name="multiply" unicode="&#xd7;" horiz-adv-x="656" 
d="M329 300l-174 -174l-79 79l175 176l-172 172l77 78l173 -173l172 172l79 -79l-172 -172l172 -172l-79 -79z" />
    <glyph glyph-name="Oslash" unicode="&#xd8;" 
d="M129 0l55 81q-65 58 -101 137.5t-36 168.5q0 167 116.5 283t282.5 116q109 0 187 -42l21 30h112l-57 -83q64 -56 100 -135t36 -168q0 -165 -115 -282.5t-279 -117.5q-112 0 -191 40l-19 -28h-112zM710 387q0 108 -77 192l-300 -443q58 -28 118 -28q114 0 186.5 82
t72.5 197zM182 386q0 -115 77 -195l300 443q-62 32 -115 32q-109 0 -185.5 -83t-76.5 -197z" />
    <glyph glyph-name="Ugrave" unicode="&#xd9;" horiz-adv-x="719" 
d="M31 667v107h192v-516q0 -71 34.5 -109.5t98.5 -38.5q65 0 102.5 39t37.5 110v515h134v-528q0 -121 -77.5 -189.5t-192.5 -68.5q-116 0 -193.5 68.5t-77.5 189.5v421h-58zM326 1025l78 -186h-100l-125 168z" />
    <glyph glyph-name="Uacute" unicode="&#xda;" horiz-adv-x="719" 
d="M31 667v107h192v-516q0 -71 34.5 -109.5t98.5 -38.5q65 0 102.5 39t37.5 110v515h134v-528q0 -121 -77.5 -189.5t-192.5 -68.5q-116 0 -193.5 68.5t-77.5 189.5v421h-58zM293 839l78 186l147 -18l-125 -168h-100z" />
    <glyph glyph-name="Ucircumflex" unicode="&#xdb;" horiz-adv-x="719" 
d="M31 667v107h192v-516q0 -71 34.5 -109.5t98.5 -38.5q65 0 102.5 39t37.5 110v515h134v-528q0 -121 -77.5 -189.5t-192.5 -68.5q-116 0 -193.5 68.5t-77.5 189.5v421h-58zM169 839l120 179h132l122 -179h-109l-77 102l-79 -102h-109z" />
    <glyph glyph-name="Udieresis" unicode="&#xdc;" horiz-adv-x="719" 
d="M31 667v107h192v-516q0 -71 34.5 -109.5t98.5 -38.5q65 0 102.5 39t37.5 110v515h134v-528q0 -121 -77.5 -189.5t-192.5 -68.5q-116 0 -193.5 68.5t-77.5 189.5v421h-58zM405 839v122h110v-122h-110zM196 839v122h110v-122h-110z" />
    <glyph glyph-name="Yacute" unicode="&#xdd;" horiz-adv-x="731" 
d="M8 667v107h158l200 -343l204 343h153l-291 -465v-309h-134v306l-224 361h-66zM304 839l78 186l147 -18l-125 -168h-100z" />
    <glyph glyph-name="Thorn" unicode="&#xde;" horiz-adv-x="671" 
d="M101 0v774h132v-144h97q60 0 112 -12.5t97.5 -39t71.5 -75.5t26 -116q0 -121 -80.5 -185t-199.5 -64h-123v-138h-133zM350 522h-116v-276h103q70 0 117.5 31t47.5 103q0 69 -43.5 105.5t-108.5 36.5z" />
    <glyph glyph-name="germandbls" unicode="&#xdf;" horiz-adv-x="629" 
d="M31 0v107h58v456q0 97 55 162.5t159 65.5q92 0 155 -50.5t64 -133.5q0 -116 -105 -163q82 -23 123.5 -83t41.5 -145q0 -103 -54.5 -166t-129.5 -63h-65v109h40q87 0 87 130q0 82 -37.5 120.5t-102.5 38.5h-21v96l15 1q31 2 61.5 29t30.5 73q0 41 -25.5 71.5t-70.5 30.5
q-47 0 -74 -32.5t-27 -77.5v-576h-178z" />
    <glyph glyph-name="agrave" unicode="&#xe0;" horiz-adv-x="655" 
d="M466 0v76q-38 -48 -83.5 -68t-108.5 -20q-101 0 -170.5 83t-69.5 195t70.5 194.5t181.5 82.5q106 0 179 -94l6 82h120v-424h58v-107h-183zM465 265q0 67 -43.5 114.5t-110.5 47.5q-66 0 -106.5 -47t-40.5 -115q0 -66 38.5 -113.5t104.5 -47.5t112 45.5t46 115.5zM271 779
l78 -186h-100l-125 168z" />
    <glyph glyph-name="aacute" unicode="&#xe1;" horiz-adv-x="655" 
d="M466 0v76q-38 -48 -83.5 -68t-108.5 -20q-101 0 -170.5 83t-69.5 195t70.5 194.5t181.5 82.5q106 0 179 -94l6 82h120v-424h58v-107h-183zM465 265q0 67 -43.5 114.5t-110.5 47.5q-66 0 -106.5 -47t-40.5 -115q0 -66 38.5 -113.5t104.5 -47.5t112 45.5t46 115.5zM234 593
l78 186l147 -18l-125 -168h-100z" />
    <glyph glyph-name="acircumflex" unicode="&#xe2;" horiz-adv-x="655" 
d="M466 0v76q-38 -48 -83.5 -68t-108.5 -20q-101 0 -170.5 83t-69.5 195t70.5 194.5t181.5 82.5q106 0 179 -94l6 82h120v-424h58v-107h-183zM465 265q0 67 -43.5 114.5t-110.5 47.5q-66 0 -106.5 -47t-40.5 -115q0 -66 38.5 -113.5t104.5 -47.5t112 45.5t46 115.5zM102 593
l120 179h132l122 -179h-109l-77 102l-79 -102h-109z" />
    <glyph glyph-name="atilde" unicode="&#xe3;" horiz-adv-x="655" 
d="M466 0v76q-38 -48 -83.5 -68t-108.5 -20q-101 0 -170.5 83t-69.5 195t70.5 194.5t181.5 82.5q106 0 179 -94l6 82h120v-424h58v-107h-183zM465 265q0 67 -43.5 114.5t-110.5 47.5q-66 0 -106.5 -47t-40.5 -115q0 -66 38.5 -113.5t104.5 -47.5t112 45.5t46 115.5zM376 590
q-36 0 -87.5 24t-69.5 24q-15 0 -26 -9t-17 -19.5t-16 -33.5l-73 22q19 68 46.5 99.5t73.5 31.5q36 0 88.5 -24t69.5 -24q15 0 26 9t17 19.5t16 33.5l73 -21q-19 -68 -46.5 -100t-74.5 -32z" />
    <glyph glyph-name="adieresis" unicode="&#xe4;" horiz-adv-x="655" 
d="M466 0v76q-38 -48 -83.5 -68t-108.5 -20q-101 0 -170.5 83t-69.5 195t70.5 194.5t181.5 82.5q106 0 179 -94l6 82h120v-424h58v-107h-183zM465 265q0 67 -43.5 114.5t-110.5 47.5q-66 0 -106.5 -47t-40.5 -115q0 -66 38.5 -113.5t104.5 -47.5t112 45.5t46 115.5zM340 593
v122h110v-122h-110zM131 593v122h110v-122h-110z" />
    <glyph glyph-name="aring" unicode="&#xe5;" horiz-adv-x="655" 
d="M466 0v76q-38 -48 -83.5 -68t-108.5 -20q-101 0 -170.5 83t-69.5 195t70.5 194.5t181.5 82.5q106 0 179 -94l6 82h120v-424h58v-107h-183zM465 265q0 67 -43.5 114.5t-110.5 47.5q-66 0 -106.5 -47t-40.5 -115q0 -66 38.5 -113.5t104.5 -47.5t112 45.5t46 115.5zM283 582
q-50 0 -85.5 36.5t-35.5 86.5q0 51 35.5 87.5t85.5 36.5t86 -37t36 -87q0 -49 -36 -86t-86 -37zM337 705q0 23 -16 39.5t-38 16.5t-37.5 -16.5t-15.5 -39.5t15.5 -39.5t37.5 -16.5q23 0 38.5 17t15.5 39z" />
    <glyph glyph-name="ae" unicode="&#xe6;" horiz-adv-x="960" 
d="M648 -12q-42 0 -79 11t-59 26.5t-38 31t-22 26.5l-7 11q-3 -4 -8 -11.5t-23.5 -25.5t-40 -32t-56.5 -25.5t-73 -11.5q-86 0 -147 55t-61 143t61.5 139.5t147.5 51.5q41 0 77.5 -12.5t51.5 -24.5l16 -13v15q0 90 -128 90q-31 0 -63 -5.5t-49 -10.5l-16 -6l-29 104
q79 29 181 29q128 0 181 -74q63 74 179 74q118 0 193.5 -84t75.5 -200q0 -13 -2 -35h-397q17 -58 47.5 -90t89.5 -32q76 0 131 66l94 -58q-79 -122 -228 -122zM385 188q0 40 -34.5 63t-78.5 23q-46 0 -77 -24.5t-31 -62.5q0 -37 29.5 -60t75.5 -23q47 0 81.5 21.5t34.5 62.5
zM649 432q-102 0 -133 -114h270q-32 114 -137 114z" />
    <glyph glyph-name="ccedilla" unicode="&#xe7;" horiz-adv-x="560" 
d="M151 -201v52q16 -7 49 -14.5t50 -7.5q23 0 40 13.5t17 31.5t-17 28t-34 10l-17 -2l-19 13l32 70q-97 16 -157.5 90.5t-60.5 181.5q0 121 76.5 199.5t191.5 78.5q149 0 228 -139v-107h-104v36q-35 95 -126 95q-64 0 -100.5 -47t-36.5 -116t36 -115t100 -46q92 0 126 90
l104 -67q-74 -138 -225 -139l-16 -38q12 3 24 3q33 0 60 -20t27 -57q0 -43 -38 -69.5t-91 -26.5q-67 0 -119 19z" />
    <glyph glyph-name="egrave" unicode="&#xe8;" horiz-adv-x="593" 
d="M413 148l81 -77q-74 -83 -198 -83q-118 0 -190 78t-72 190q0 121 72.5 204t191.5 83q122 0 191.5 -82t69.5 -199q0 -18 -2 -38h-396q0 -5 1 -13t8 -29t20 -37t41.5 -29t66.5 -13q68 0 115 45zM296 429q-104 0 -135 -111h272q-15 54 -50.5 82.5t-86.5 28.5zM269 779
l78 -186h-100l-125 168z" />
    <glyph glyph-name="eacute" unicode="&#xe9;" horiz-adv-x="593" 
d="M413 148l81 -77q-74 -83 -198 -83q-118 0 -190 78t-72 190q0 121 72.5 204t191.5 83q122 0 191.5 -82t69.5 -199q0 -18 -2 -38h-396q0 -5 1 -13t8 -29t20 -37t41.5 -29t66.5 -13q68 0 115 45zM296 429q-104 0 -135 -111h272q-15 54 -50.5 82.5t-86.5 28.5zM262 593
l78 186l147 -18l-125 -168h-100z" />
    <glyph glyph-name="ecircumflex" unicode="&#xea;" horiz-adv-x="593" 
d="M413 148l81 -77q-74 -83 -198 -83q-118 0 -190 78t-72 190q0 121 72.5 204t191.5 83q122 0 191.5 -82t69.5 -199q0 -18 -2 -38h-396q0 -5 1 -13t8 -29t20 -37t41.5 -29t66.5 -13q68 0 115 45zM296 429q-104 0 -135 -111h272q-15 54 -50.5 82.5t-86.5 28.5zM106 593
l120 179h132l122 -179h-109l-77 102l-79 -102h-109z" />
    <glyph glyph-name="edieresis" unicode="&#xeb;" horiz-adv-x="593" 
d="M413 148l81 -77q-74 -83 -198 -83q-118 0 -190 78t-72 190q0 121 72.5 204t191.5 83q122 0 191.5 -82t69.5 -199q0 -18 -2 -38h-396q0 -5 1 -13t8 -29t20 -37t41.5 -29t66.5 -13q68 0 115 45zM296 429q-104 0 -135 -111h272q-15 54 -50.5 82.5t-86.5 28.5zM348 593v122
h110v-122h-110zM139 593v122h110v-122h-110z" />
    <glyph glyph-name="igrave" unicode="&#xec;" horiz-adv-x="290" 
d="M23 424v107h186v-531h-128v424h-58zM117 779l78 -186h-100l-125 168z" />
    <glyph glyph-name="iacute" unicode="&#xed;" horiz-adv-x="290" 
d="M23 424v107h186v-531h-128v424h-58zM97 593l78 186l147 -18l-125 -168h-100z" />
    <glyph glyph-name="icircumflex" unicode="&#xee;" horiz-adv-x="290" 
d="M23 424v107h186v-531h-128v424h-58zM-58 593l120 179h132l122 -179h-109l-77 102l-79 -102h-109z" />
    <glyph glyph-name="idieresis" unicode="&#xef;" horiz-adv-x="290" 
d="M23 424v107h186v-531h-128v424h-58zM177 593v122h110v-122h-110zM-32 593v122h110v-122h-110z" />
    <glyph glyph-name="eth" unicode="&#xf0;" horiz-adv-x="646" 
d="M310 -16q-116 0 -185.5 75.5t-69.5 183.5q0 109 68.5 182t169.5 73q44 0 87.5 -14t63.5 -36q-15 85 -71 142l-142 -81v103l58 33q-30 10 -61 10q-24 0 -48.5 -5.5t-37.5 -11.5l-13 -5l-38 111q56 30 143 30q103 0 184 -55l119 68v-103l-50 -29q104 -128 104 -324
q0 -88 -23 -156.5t-62.5 -109t-89 -61t-106.5 -20.5zM304 102q62 0 107.5 59.5t45.5 124.5q0 57 -37 81.5t-86 24.5q-69 0 -110 -43.5t-41 -105.5q0 -58 35 -99.5t86 -41.5z" />
    <glyph glyph-name="ntilde" unicode="&#xf1;" horiz-adv-x="636" 
d="M430 0v350q0 32 -23.5 54.5t-60.5 22.5q-30 0 -57.5 -15.5t-76.5 -53.5v-358h-128v531h120l6 -71q53 36 74 49t49.5 23.5t58.5 10.5q85 0 126.5 -48t41.5 -120v-268h58v-107h-188zM419 583q-36 0 -87.5 24t-69.5 24q-15 0 -26 -9t-17 -19.5t-16 -33.5l-73 22
q19 68 46.5 99.5t73.5 31.5q36 0 88.5 -24t69.5 -24q15 0 26 9t17 19.5t16 33.5l73 -21q-19 -68 -46.5 -100t-74.5 -32z" />
    <glyph glyph-name="ograve" unicode="&#xf2;" horiz-adv-x="633" 
d="M315 -12q-115 0 -198 80t-83 198q0 116 84.5 196.5t197.5 80.5q121 0 202 -79.5t81 -197.5q0 -120 -80.5 -199t-203.5 -79zM469 265q0 67 -42 114.5t-110 47.5t-110.5 -48t-42.5 -114q0 -67 42.5 -114t110.5 -47t110 47t42 114zM284 779l78 -186h-100l-125 168z" />
    <glyph glyph-name="oacute" unicode="&#xf3;" horiz-adv-x="633" 
d="M315 -12q-115 0 -198 80t-83 198q0 116 84.5 196.5t197.5 80.5q121 0 202 -79.5t81 -197.5q0 -120 -80.5 -199t-203.5 -79zM469 265q0 67 -42 114.5t-110 47.5t-110.5 -48t-42.5 -114q0 -67 42.5 -114t110.5 -47t110 47t42 114zM282 593l78 186l147 -18l-125 -168h-100z
" />
    <glyph glyph-name="ocircumflex" unicode="&#xf4;" horiz-adv-x="633" 
d="M315 -12q-115 0 -198 80t-83 198q0 116 84.5 196.5t197.5 80.5q121 0 202 -79.5t81 -197.5q0 -120 -80.5 -199t-203.5 -79zM469 265q0 67 -42 114.5t-110 47.5t-110.5 -48t-42.5 -114q0 -67 42.5 -114t110.5 -47t110 47t42 114zM132 593l120 179h132l122 -179h-109
l-77 102l-79 -102h-109z" />
    <glyph glyph-name="otilde" unicode="&#xf5;" horiz-adv-x="633" 
d="M315 -12q-115 0 -198 80t-83 198q0 116 84.5 196.5t197.5 80.5q121 0 202 -79.5t81 -197.5q0 -120 -80.5 -199t-203.5 -79zM469 265q0 67 -42 114.5t-110 47.5t-110.5 -48t-42.5 -114q0 -67 42.5 -114t110.5 -47t110 47t42 114zM404 590q-36 0 -87.5 24t-69.5 24
q-15 0 -26 -9t-17 -19.5t-16 -33.5l-73 22q19 68 46.5 99.5t73.5 31.5q36 0 88.5 -24t69.5 -24q15 0 26 9t17 19.5t16 33.5l73 -21q-19 -68 -46.5 -100t-74.5 -32z" />
    <glyph glyph-name="odieresis" unicode="&#xf6;" horiz-adv-x="633" 
d="M315 -12q-115 0 -198 80t-83 198q0 116 84.5 196.5t197.5 80.5q121 0 202 -79.5t81 -197.5q0 -120 -80.5 -199t-203.5 -79zM469 265q0 67 -42 114.5t-110 47.5t-110.5 -48t-42.5 -114q0 -67 42.5 -114t110.5 -47t110 47t42 114zM371 593v122h110v-122h-110zM162 593v122
h110v-122h-110z" />
    <glyph glyph-name="divide" unicode="&#xf7;" horiz-adv-x="711" 
d="M635 324h-559v110h559v-110zM262 195q0 39 27.5 66.5t66.5 27.5t66.5 -27.5t27.5 -66.5t-27.5 -66.5t-66.5 -27.5t-66.5 27.5t-27.5 66.5zM262 563q0 39 27.5 66.5t66.5 27.5t66.5 -27.5t27.5 -66.5t-27.5 -66.5t-66.5 -27.5t-66.5 27.5t-27.5 66.5z" />
    <glyph glyph-name="oslash" unicode="&#xf8;" horiz-adv-x="633" 
d="M56 -57l74 109q-96 83 -96 215q0 119 79.5 197.5t202.5 78.5q69 0 128 -28l50 73h82l-74 -109q97 -79 97 -211q0 -118 -82 -199t-201 -81q-72 0 -129 27l-48 -72h-83zM166 269q0 -62 38 -108l175 258q-29 13 -62 13q-68 0 -109.5 -48.5t-41.5 -114.5zM467 267
q0 64 -35 110l-174 -257q27 -11 59 -11q72 0 111 45.5t39 112.5z" />
    <glyph glyph-name="ugrave" unicode="&#xf9;" horiz-adv-x="626" 
d="M428 0l-6 63q-59 -42 -101 -58.5t-89 -16.5q-157 0 -157 175v368h128v-329q0 -52 16.5 -75t60.5 -23q61 0 135 82v345h128v-424h58v-107h-173zM274 779l78 -186h-100l-125 168z" />
    <glyph glyph-name="uacute" unicode="&#xfa;" horiz-adv-x="626" 
d="M428 0l-6 63q-59 -42 -101 -58.5t-89 -16.5q-157 0 -157 175v368h128v-329q0 -52 16.5 -75t60.5 -23q61 0 135 82v345h128v-424h58v-107h-173zM238 593l78 186l147 -18l-125 -168h-100z" />
    <glyph glyph-name="ucircumflex" unicode="&#xfb;" horiz-adv-x="626" 
d="M428 0l-6 63q-59 -42 -101 -58.5t-89 -16.5q-157 0 -157 175v368h128v-329q0 -52 16.5 -75t60.5 -23q61 0 135 82v345h128v-424h58v-107h-173zM120 593l120 179h132l122 -179h-109l-77 102l-79 -102h-109z" />
    <glyph glyph-name="udieresis" unicode="&#xfc;" horiz-adv-x="626" 
d="M428 0l-6 63q-59 -42 -101 -58.5t-89 -16.5q-157 0 -157 175v368h128v-329q0 -52 16.5 -75t60.5 -23q61 0 135 82v345h128v-424h58v-107h-173zM359 593v122h110v-122h-110zM150 593v122h110v-122h-110z" />
    <glyph glyph-name="yacute" unicode="&#xfd;" horiz-adv-x="575" 
d="M-14 424v107h150l138 -382l167 382h135l-345 -745h-136l108 224l-159 414h-58zM230 593l78 186l147 -18l-125 -168h-100z" />
    <glyph glyph-name="thorn" unicode="&#xfe;" horiz-adv-x="676" 
d="M100 -214v988h128v-305q67 73 165 73q107 0 178 -82t71 -200t-73 -197t-179 -79q-105 0 -173 87v-285h-117zM509 268q-2 65 -40.5 112.5t-104.5 47.5q-67 0 -106.5 -49t-39.5 -116q0 -68 41.5 -114.5t107.5 -46.5t104 47t38 119z" />
    <glyph glyph-name="ydieresis" unicode="&#xff;" horiz-adv-x="575" 
d="M-14 424v107h150l138 -382l167 382h135l-345 -745h-136l108 224l-159 414h-58zM324 593v122h110v-122h-110zM115 593v122h110v-122h-110z" />
    <glyph glyph-name="dotlessi" unicode="&#x131;" horiz-adv-x="290" 
d="M23 424v107h186v-531h-128v424h-58z" />
    <glyph glyph-name="OE" unicode="&#x152;" horiz-adv-x="1099" 
d="M446 786q79 0 119 -12h487v-108h-353v-193h216v-121h-216v-244h353v-108h-481q-39 -12 -126 -12q-172 0 -285 116.5t-113 282.5t113 282.5t286 116.5zM444 116q66 0 121 26v494q-58 30 -122 30q-110 0 -185.5 -80.5t-75.5 -201.5q0 -117 72.5 -192.5t189.5 -75.5z" />
    <glyph glyph-name="oe" unicode="&#x153;" horiz-adv-x="1059" 
d="M819 128l127 -33q-40 -54 -87.5 -80.5t-117.5 -26.5q-127 0 -209 95q-83 -95 -217 -95q-121 0 -201 80.5t-80 199.5q0 118 80 196.5t202 78.5q133 0 215 -96q42 47 87 71.5t107 24.5q129 0 200 -82t71 -202q0 -13 -2 -35h-399q23 -121 150 -121q37 0 74 25zM467 267
q0 67 -41 113.5t-110 46.5q-70 0 -111.5 -46t-41.5 -112q0 -67 42 -116t112 -49q69 0 109.5 48t40.5 115zM730 429q-102 0 -133 -111h270q-31 111 -137 111z" />
    <glyph glyph-name="Scaron" unicode="&#x160;" horiz-adv-x="652" 
d="M623 232q0 -109 -75.5 -176.5t-210.5 -67.5q-193 0 -308 131l94 86q90 -100 215 -100q76 0 115.5 28t39.5 81q0 23 -9 41t-21.5 29.5t-42 23.5t-53.5 19.5t-73 20.5q-112 31 -154 56q-86 52 -86 155q0 104 76 165.5t193 61.5q153 0 276 -109l-91 -93q-90 82 -190 82
q-133 0 -133 -94q0 -47 38 -68t145 -48q116 -29 159 -54q96 -55 96 -170zM254 839l-120 179h109l79 -122l77 122h109l-122 -179h-132z" />
    <glyph glyph-name="scaron" unicode="&#x161;" horiz-adv-x="496" 
d="M262 -12q-127 0 -231 81l59 96q96 -71 173 -71q39 0 63 17t24 42q0 29 -30.5 44t-83.5 25q-179 34 -179 158q0 79 55 121t141 42q107 0 199 -63l-51 -96q-78 54 -150 54q-36 0 -57 -12t-21 -34q0 -27 28 -42.5t82 -26.5q38 -8 64.5 -17t57 -27.5t47 -50t16.5 -74.5
q0 -84 -57 -125t-149 -41zM188 593l-120 179h109l79 -122l77 122h109l-122 -179h-132z" />
    <glyph glyph-name="Ydieresis" unicode="&#x178;" horiz-adv-x="731" 
d="M8 667v107h158l200 -343l204 343h153l-291 -465v-309h-134v306l-224 361h-66zM416 839v122h110v-122h-110zM207 839v122h110v-122h-110z" />
    <glyph glyph-name="Zcaron" unicode="&#x17d;" horiz-adv-x="579" 
d="M554 0h-533v99l374 556h-361v119h524v-90l-379 -565h268v58h107v-177zM225 839l-120 179h109l79 -122l77 122h109l-122 -179h-132z" />
    <glyph glyph-name="zcaron" unicode="&#x17e;" horiz-adv-x="518" 
d="M484 0h-450v106l290 322h-280v103h427v-109l-282 -318h188v58h107v-162zM195 593l-120 179h109l79 -122l77 122h109l-122 -179h-132z" />
    <glyph glyph-name="bitcoin" unicode="&#x180;" horiz-adv-x="629" 
d="M94 0v774h72v97h94v-97h79v97h94v-112q56 -19 92 -63t36 -114q0 -114 -114 -160q148 -51 148 -200q0 -84 -43 -137t-119 -73v-109h-94v97h-79v-97h-94v97h-72zM296 366h-68v-259h104q58 0 93 31t35 89q0 69 -47.5 104t-116.5 35zM319 667h-91v-196h77q53 0 88 24t35 76
q0 49 -31 72.5t-78 23.5z" />
    <glyph glyph-name="florin" unicode="&#x192;" horiz-adv-x="543" 
d="M130 470v90h123l21 122q14 81 56.5 130.5t117.5 49.5q52 0 94 -23l-18 -98q-22 21 -55 21q-61 0 -78 -83l-23 -119h107v-90h-118l-69 -460q-12 -77 -52 -137t-108 -63q-71 2 -110 28l15 96q26 -18 54 -18q41 0 60.5 32t28.5 93l66 429h-112z" />
    <glyph glyph-name="Bitcoin" unicode="&#x243;" horiz-adv-x="629" 
d="M30 191v91h64v492h253q37 0 72.5 -10t68.5 -31.5t53 -60.5t20 -90q0 -114 -114 -160q148 -51 148 -200q0 -109 -71.5 -165.5t-187.5 -56.5h-242v191h-64zM296 366h-68v-84h135v-91h-135v-84h104q58 0 93 31t35 89q0 69 -47.5 104t-116.5 35zM319 667h-91v-196h77
q53 0 88 24t35 76q0 49 -31 72.5t-78 23.5z" />
    <glyph glyph-name="circumflex" unicode="&#x2c6;" horiz-adv-x="384" 
d="M5 593l120 179h132l122 -179h-109l-77 102l-79 -102h-109z" />
    <glyph glyph-name="caron" unicode="&#x2c7;" horiz-adv-x="384" 
d="M125 593l-120 179h109l79 -122l77 122h109l-122 -179h-132z" />
    <glyph glyph-name="breve" unicode="&#x2d8;" horiz-adv-x="377" 
d="M189 584q-65 0 -110 35.5t-45 97.5v13h94v-13q0 -30 17.5 -45.5t42.5 -15.5t43 16t18 46v12h94v-13q0 -62 -45 -97.5t-109 -35.5z" />
    <glyph glyph-name="dotaccent" unicode="&#x2d9;" horiz-adv-x="165" 
d="M28 593v122h110v-122h-110z" />
    <glyph glyph-name="ring" unicode="&#x2da;" horiz-adv-x="253" 
d="M126 582q-50 0 -85.5 36.5t-35.5 86.5q0 51 35.5 87.5t85.5 36.5t86 -37t36 -87q0 -49 -36 -86t-86 -37zM180 705q0 23 -16 39.5t-38 16.5t-37.5 -16.5t-15.5 -39.5t15.5 -39.5t37.5 -16.5q23 0 38.5 17t15.5 39z" />
    <glyph glyph-name="ogonek" unicode="&#x2db;" horiz-adv-x="243" 
d="M219 -120v-67q-48 -28 -104 -28q-53 0 -82.5 24.5t-29.5 68.5q0 91 114 122h78q-98 -40 -98 -104q0 -41 44 -41q31 0 78 25z" />
    <glyph glyph-name="tilde" unicode="&#x2dc;" horiz-adv-x="426" 
d="M297 590q-36 0 -87.5 24t-69.5 24q-15 0 -26 -9t-17 -19.5t-16 -33.5l-73 22q19 68 46.5 99.5t73.5 31.5q36 0 88.5 -24t69.5 -24q15 0 26 9t17 19.5t16 33.5l73 -21q-19 -68 -46.5 -100t-74.5 -32z" />
    <glyph glyph-name="hungarumlaut" unicode="&#x2dd;" horiz-adv-x="438" 
d="M13 593l78 169l147 -18l-125 -151h-100zM200 593l78 169l147 -18l-125 -151h-100z" />
    <glyph glyph-name="dieresistonos" unicode="&#x385;" horiz-adv-x="357" 
d="M235 593v122h110v-122h-110zM26 593v122h110v-122h-110zM236 759h-115l72 119h148z" />
    <glyph glyph-name="baht" unicode="&#xe3f;" horiz-adv-x="629" 
d="M36 0v107h58v667h201l4 104h71l-4 -105q49 -4 90.5 -22t73 -62t31.5 -107q0 -114 -114 -160q148 -51 148 -200q0 -108 -70.5 -164.5t-185.5 -57.5l-3 -90h-71l3 90h-232zM460 227q0 54 -29.5 87t-78.5 45l-9 -252q53 3 85 34t32 86zM228 366v-259h44l9 259h-53zM228 667
v-196h56l7 196h-63zM428 571q0 71 -66 90l-6 -184q72 21 72 94z" />
    <glyph glyph-name="endash" unicode="&#x2013;" horiz-adv-x="735" 
d="M54 212v111h631v-111h-631z" />
    <glyph glyph-name="emdash" unicode="&#x2014;" horiz-adv-x="890" 
d="M54 212v111h784v-111h-784z" />
    <glyph glyph-name="quoteleft" unicode="&#x2018;" horiz-adv-x="350" 
d="M83 539l91 235h111l-74 -235h-128z" />
    <glyph glyph-name="quoteright" unicode="&#x2019;" horiz-adv-x="350" 
d="M285 774l-91 -235h-111l74 235h128z" />
    <glyph glyph-name="quotesinglbase" unicode="&#x201a;" horiz-adv-x="297" 
d="M65 -71l91 235h111l-74 -235h-128z" />
    <glyph glyph-name="quotedblleft" unicode="&#x201c;" horiz-adv-x="543" 
d="M83 539l91 235h111l-74 -235h-128zM279 539l91 235h111l-74 -235h-128z" />
    <glyph glyph-name="quotedblright" unicode="&#x201d;" horiz-adv-x="597" 
d="M481 774l-91 -235h-111l74 235h128zM285 774l-91 -235h-111l74 235h128z" />
    <glyph glyph-name="quotedblbase" unicode="&#x201e;" horiz-adv-x="514" 
d="M65 -71l91 235h111l-74 -235h-128zM247 -71l91 235h111l-74 -235h-128z" />
    <glyph glyph-name="dagger" unicode="&#x2020;" horiz-adv-x="623" 
d="M552 444l-187 19v-463h-108v463l-185 -19v132l184 -19v217h110v-217l186 19v-132z" />
    <glyph glyph-name="daggerdbl" unicode="&#x2021;" horiz-adv-x="622" 
d="M364 288l186 18v-132l-185 19v-193h-109v193l-184 -19v132l185 -18v198l-185 -19v133l184 -19v193h109v-193l185 19v-133l-186 19v-198z" />
    <glyph glyph-name="bullet" unicode="&#x2022;" horiz-adv-x="607" 
d="M161 382q2 58 43 98.5t99 40.5q59 0 101 -41t42 -99q0 -59 -42.5 -102.5t-100.5 -43.5q-60 0 -101 43.5t-41 103.5z" />
    <glyph glyph-name="ellipsis" unicode="&#x2026;" horiz-adv-x="774" 
d="M21 82q0 39 27.5 66.5t66.5 27.5t66.5 -27.5t27.5 -66.5t-27.5 -66.5t-66.5 -27.5t-66.5 27.5t-27.5 66.5zM279 82q0 39 27.5 66.5t66.5 27.5t66.5 -27.5t27.5 -66.5t-27.5 -66.5t-66.5 -27.5t-66.5 27.5t-27.5 66.5zM537 82q0 39 27.5 66.5t66.5 27.5t66.5 -27.5
t27.5 -66.5t-27.5 -66.5t-66.5 -27.5t-66.5 27.5t-27.5 66.5z" />
    <glyph glyph-name="perthousand" unicode="&#x2030;" horiz-adv-x="1230" 
d="M955 -14q-82 0 -139 62q-55 -62 -134 -62t-135 57t-56 136q0 78 55.5 133.5t133.5 55.5q81 0 137 -59q56 59 137 59q77 0 132 -54t55 -132q0 -77 -53.5 -136.5t-132.5 -59.5zM219 407q-77 0 -133.5 57t-56.5 136q0 78 55.5 133.5t133.5 55.5q77 0 132 -54t55 -132
q0 -77 -53.5 -136.5t-132.5 -59.5zM302 599q-2 34 -26.5 58.5t-58.5 24.5t-60 -24.5t-26 -59.5q0 -34 25.5 -60.5t59.5 -26.5t60 26.5t26 61.5zM764 178q-2 34 -26.5 58.5t-58.5 24.5t-60 -24.5t-26 -59.5q0 -34 25.5 -60.5t59.5 -26.5t60 26.5t26 61.5zM1038 178
q-2 34 -26.5 58.5t-58.5 24.5t-60 -24.5t-26 -59.5q0 -34 25.5 -60.5t59.5 -26.5t60 26.5t26 61.5zM130 0l525 774h99l-525 -774h-99z" />
    <glyph glyph-name="guilsinglleft" unicode="&#x2039;" horiz-adv-x="328" 
d="M8 346l139 185h152l-139 -185l139 -185h-152z" />
    <glyph glyph-name="guilsinglright" unicode="&#x203a;" horiz-adv-x="328" 
d="M181 531l139 -185l-139 -185h-152l139 185l-139 185h152z" />
    <glyph glyph-name="fraction" unicode="&#x2044;" horiz-adv-x="598" 
d="M-13 0l525 774h99l-525 -774h-99z" />
    <glyph glyph-name="colonmonetary" unicode="&#x20a1;" horiz-adv-x="598" 
d="M338 -81v68q-4 0 -11 -0.5t-11 -0.5t-12.5 0.5t-12.5 0.5v-68h-59v78q-90 25 -144 98t-54 171t54 169.5t144 96.5v73h59v-63q4 0 12.5 0.5t12.5 0.5t11 -0.5t11 -0.5v63h59v-73q113 -29 168 -128l-109 -74q-19 49 -59 76v-279q38 25 57 70l110 -70q-55 -101 -167 -130
v-78h-59zM316 104q15 0 22 1v323q-14 2 -22 2q-13 0 -25 -3v-321q8 -2 25 -2zM166 266q0 -90 66 -137v274q-66 -47 -66 -137z" />
    <glyph glyph-name="lira" unicode="&#x20a4;" horiz-adv-x="583" 
d="M40 210v88h110q-1 8 -9 41h-101v89h84q-21 61 -21 136q0 89 48.5 149.5t150.5 60.5q58 0 99 -21t60.5 -55t27 -65t7.5 -62v-13h-123q-3 43 -20.5 75.5t-56.5 32.5q-34 0 -53 -27t-19 -67q0 -70 28 -143h124v-91h-110l6 -40h104v-88h-111q-14 -63 -62 -88h133
q43 0 62 25.5t19 62.5h121v-9q0 -21 -4 -44.5t-15 -52t-29 -51t-48.5 -38t-70.5 -15.5h-332v133q80 16 101 77h-100z" />
    <glyph glyph-name="mill" unicode="&#x20a5;" horiz-adv-x="947" 
d="M166 -121l247 364v107q0 30 -22 48t-57 18q-23 0 -44.5 -10t-35.5 -21.5t-42 -37.5v-347h-128v528h117l6 -69q57 45 93.5 63.5t81.5 18.5q50 0 81.5 -21.5t56.5 -64.5q40 29 68 46l103 152h99l-77 -113q71 -3 114.5 -51t43.5 -117v-372h-132v339q0 33 -18 54t-56 21
q-23 0 -43 -9l-81 -119v-286h-128v97l-148 -218h-99z" />
    <glyph glyph-name="naira" unicode="&#x20a6;" horiz-adv-x="755" 
d="M23 457v74h66v243h182l128 -243h134v243h133v-243h59v-74h-59v-182h59v-74h-59v-201h-118l-109 201h-217v-201h-133v201h-66v74h66v182h-66zM222 457v-182h177l-98 182h-79zM438 457l95 -180v180h-95zM222 603v-72h39z" />
    <glyph glyph-name="rupee" unicode="&#x20a8;" horiz-adv-x="1065" 
d="M40 667v107h295q269 0 269 -208q0 -83 -39.5 -139t-100.5 -78l145 -185q29 -32 64 -49t56 -19t54 -2q39 0 63 17t24 42q0 29 -30.5 44t-83.5 25q-179 34 -179 158q0 79 55 121t141 42q107 0 199 -63l-51 -96q-78 54 -150 54q-36 0 -57 -12t-21 -34q0 -27 28 -42.5
t82 -26.5q38 -8 64.5 -17t57 -27.5t47 -50t16.5 -74.5q0 -84 -57 -125t-149 -41q-79 0 -133.5 18.5t-96.5 64.5l-196 242h-124v-313h-134v667h-58zM232 432h120q55 0 85.5 29t30.5 87q0 54 -30.5 80.5t-104.5 26.5h-101v-223z" />
    <glyph glyph-name="won" unicode="&#x20a9;" horiz-adv-x="977" 
d="M829 774h118l-48 -169h47v-74h-68l-36 -130h87v-74h-108l-92 -327h-88l-101 327h-94l-99 -327h-91l-96 327h-112v74h91l-38 130h-70v74h48l-49 169h140l45 -169h199l51 169h60l53 -169h207zM602 531l41 -130h89l34 130h-164zM235 531l34 -130h84l39 130h-157zM493 480
l-24 -79h48zM666 327l26 -80l21 80h-47zM289 327l20 -74l22 74h-42z" />
    <glyph glyph-name="Sheqel" unicode="&#x20aa;" horiz-adv-x="573" 
d="M82 25v158q62 -74 138 -74q62 0 96 38.5t34 115.5v268h134v-269q0 -121 -67.5 -197.5t-187.5 -76.5q-80 0 -147 37zM478 737v-158q-62 74 -138 74q-62 0 -96 -38.5t-34 -115.5v-268h-134v269q0 121 67.5 197.5t187.5 76.5q80 0 147 -37z" />
    <glyph glyph-name="Euro" unicode="&#x20ac;" horiz-adv-x="615" 
d="M465 197l93 -89q-70 -120 -209 -120q-106 0 -169.5 73t-86.5 191h-57v91h46q-1 15 -1 46v24h-45v91h53q20 124 84 197t176 73q149 0 219 -143l-92 -83q-39 107 -126 107q-98 0 -127 -151h193l-15 -91h-188v-25q0 -30 1 -45h176l-15 -91h-148q15 -66 47 -107.5t77 -41.5
q79 0 114 94z" />
    <glyph glyph-name="Kip" unicode="&#x20ad;" horiz-adv-x="613" 
d="M30 0v107h58v233h-45v91h45v328h134v-310l208 310h161l-220 -328h185v-91h-189l228 -340h-160l-213 317v-317h-192z" />
    <glyph glyph-name="Tugrik" unicode="&#x20ae;" horiz-adv-x="562" 
d="M89 383l120 68v186h-192v122h518v-122h-192v-110l127 73v-99l-127 -73v-95l127 73v-99l-127 -73v-234h-134v158l-120 -68v99l120 68v95l-120 -68v99z" />
    <glyph glyph-name="peso" unicode="&#x20b1;" horiz-adv-x="690" 
d="M23 495v74h78v205h196q76 0 137.5 -18t109.5 -65.5t57 -121.5h69v-74h-68q-13 -104 -91 -158.5t-187 -54.5h-89v-282h-134v495h-78zM304 390q62 0 107 24.5t55 80.5h-231v-105h69zM317 666h-82v-97h228q-14 47 -54 72t-92 25z" />
    <glyph glyph-name="Guarani" unicode="&#x20b2;" horiz-adv-x="734" 
d="M561 533v18q-62 84 -143 101v-537q32 1 59.5 9.5t44.5 20t28.5 23t16.5 19t4 7.5v96h-104v115h226v-271q-4 -6 -11.5 -15t-34 -33t-56 -42.5t-76.5 -35t-97 -19.5v-67h-95v74q-130 26 -211.5 134t-81.5 253q0 146 83 253t210 131v84h95v-79q140 -12 239 -132v-107h-96z
M165 383q0 -87 40.5 -158t117.5 -97v516q-70 -26 -114 -97.5t-44 -163.5z" />
    <glyph glyph-name="Grivna" unicode="&#x20b4;" horiz-adv-x="662" 
d="M18 278v77h609v-77h-428q-24 -26 -24 -64q0 -53 37 -82t107 -29q111 0 190 96l77 -80q-103 -131 -266 -131q-114 0 -183.5 59.5t-69.5 163.5q0 36 11 67h-60zM18 416v76h415q29 27 29 68q0 44 -31 69t-94 25q-89 0 -167 -76q-20 24 -75 87q107 109 237 109
q106 0 175 -51.5t69 -157.5q0 -39 -13 -73h64v-76h-609z" />
    <glyph glyph-name="Cedi" unicode="&#x20b5;" horiz-adv-x="708" 
d="M577 552v11q-58 81 -137 98v-549q85 19 143 108l107 -75q-42 -65 -106.5 -105.5t-143.5 -48.5v-69h-95v70q-135 21 -219.5 133.5t-84.5 262.5t84.5 261t219.5 132v70h95v-67q146 -15 230 -125v-107h-93zM176 387q0 -101 46 -176t123 -96v543q-75 -21 -122 -95t-47 -176z
" />
    <glyph glyph-name="Tenge" unicode="&#x20b8;" horiz-adv-x="562" 
d="M427 579v58h-84v-637h-134v637h-84v-58h-108v180h518v-180h-108zM17 820v91h518v-91h-518z" />
    <glyph glyph-name="IndianRupee" unicode="&#x20b9;" horiz-adv-x="574" 
d="M176 514v91h108q-23 60 -108 60h-129v110h451v-91h-101q21 -35 25 -79h76v-91h-83q-22 -79 -118 -112q32 -5 52 -18t30 -37.5t13.5 -46.5t5.5 -59q7 -98 17 -158t17 -71l7 -12h-126q-3 2 -8 9.5t-15.5 56t-14.5 125.5q-2 39 -4 56.5t-9.5 42.5t-21 35.5t-38.5 18.5t-62 8
h-93v102h147q10 0 24.5 3.5t35 18t29.5 38.5h-107z" />
    <glyph glyph-name="Turkish.Lira" unicode="&#x20ba;" horiz-adv-x="540" 
d="M381 727v-103l-146 -83v-103l146 83v-103l-146 -83v-217h292v-118h-427v258l-100 -57v103l100 57v103l-100 -57v103l100 57v207h135v-130z" />
    <glyph glyph-name="Rublo" unicode="&#x20bd;" horiz-adv-x="565" 
d="M31 652v107h238q55 0 101.5 -11t88 -36t65 -73t23.5 -115q0 -122 -73.5 -188.5t-180.5 -66.5h-70v-63h253v-91h-253v-115h-134v115h-59v91h59v446h-58zM287 640h-64v-252h52q137 0 137 129q0 123 -125 123z" />
    <glyph glyph-name="litre" unicode="&#x2113;" horiz-adv-x="479" 
d="M89 124v27q-7 -7 -21 -7q-6 0 -12.5 1.5t-15 12t-8.5 28.5t8 30.5t16 16.5l7 4l26 13v409q0 14 6 32t20 40t45 37t74 15q173 0 173 -251q0 -84 -53.5 -166t-136.5 -141v-67q0 -33 18 -45t55 -12h93v-101h-168q-64 0 -95 27t-31 97zM217 644v-289q67 83 67 182
q0 31 -1 48.5t-4.5 39t-13 31t-24.5 9.5q-11 0 -17 -5.5t-6 -10.5z" />
    <glyph glyph-name="afii61352" unicode="&#x2116;" horiz-adv-x="1102" 
d="M764 0v68h272v-68h-272zM900 102q-71 0 -118.5 48.5t-47.5 118.5q0 69 47 115.5t119 46.5t120 -46t48 -116q0 -71 -48.5 -119t-119.5 -48zM990 268q0 41 -24 69t-64 28t-65 -28.5t-25 -67.5t25 -67t67 -28q40 0 63 27t23 67zM32 667v107h238l264 -497v497h130v-774h-115
l-328 603v-603h-131v667h-58z" />
    <glyph glyph-name="published" unicode="&#x2117;" horiz-adv-x="707" 
d="M352 50q92 0 154.5 64t62.5 155q0 90 -62 153.5t-152 63.5q-92 0 -154.5 -64t-62.5 -155t61.5 -154t152.5 -63zM353 -12q-115 0 -196 82t-81 195q0 114 81 196t196 82q116 0 197 -81.5t81 -194.5q0 -114 -81 -196.5t-197 -82.5zM249 388v47h110q57 0 95.5 -25t38.5 -81
q0 -53 -35.5 -83.5t-86.5 -30.5h-39v-117h-58v290h-25zM368 383h-36v-117h30q30 0 51 14t21 46q0 57 -66 57z" />
    <glyph glyph-name="trademark" unicode="&#x2122;" horiz-adv-x="871" 
d="M150 702h-129v72h338v-72h-129v-385h-80v385zM361 711v63h119l131 -213l131 213h83v-457h-78v330l-136 -213l-137 212v-329h-78v394h-35z" />
    <glyph glyph-name="Omega" unicode="&#x2126;" horiz-adv-x="919" 
d="M352 0h-305v107h123q-51 55 -79.5 132t-28.5 157q0 165 113 277.5t286 112.5t286 -113t113 -278q0 -80 -28 -157t-79 -131h119v-107h-305l-42 112q89 23 144.5 101.5t55.5 178.5q0 121 -77 197.5t-189 76.5q-111 0 -186.5 -76.5t-75.5 -196.5q0 -102 54 -180t144 -99z
" />
    <glyph glyph-name="dblgrave" unicode="&#xf6d6;" horiz-adv-x="438" 
d="M326 779l78 -186h-100l-125 168zM139 779l78 -186h-100l-125 168z" />
    <glyph glyph-name="dieresisacute" unicode="&#xf6d7;" horiz-adv-x="357" 
d="M229 593v122h110v-122h-110zM20 593v122h110v-122h-110zM127 762l78 164l147 -18l-125 -146h-100z" />
    <glyph glyph-name="dieresisgrave" unicode="&#xf6d8;" horiz-adv-x="357" 
d="M229 593v122h110v-122h-110zM20 593v122h110v-122h-110zM145 926l78 -164h-100l-125 146z" />
    <glyph glyph-name="rupiah" unicode="&#xf6dd;" horiz-adv-x="1201" 
d="M568 -214v107h58v107h-117l-165 313h-110v-313h-134v667h-58v107h295q269 0 269 -208q0 -83 -39.5 -139t-100.5 -78l160 -291v473h109l6 -75q76 87 176 87q109 0 179.5 -80t70.5 -205q0 -120 -74.5 -195t-179.5 -75q-91 0 -159 71v-273h-186zM889 103q68 1 109 48.5
t41 113.5t-40 114.5t-104 48.5q-63 0 -106 -47t-43 -118q0 -66 38 -112.5t105 -47.5zM234 432h120q55 0 85.5 29t30.5 87q0 54 -30.5 80.5t-104.5 26.5h-101v-223z" />
    <glyph glyph-name="apple" unicode="&#xf8ff;" horiz-adv-x="1092" 
d="M729 610l-37 37l-70 -70l415 -415l-85 -85l-415 415l-70 -71l37 -37l-69 -68l-115 114l363 363l115 -114zM72 0v92h572v-92h-572zM216 113v100h284v-100h-284z" />
    <glyph glyph-name="colonmonetary.fitted" horiz-adv-x="900" 
d="M488 -81v68q-4 0 -11 -0.5t-11 -0.5t-12.5 0.5t-12.5 0.5v-68h-59v78q-90 25 -144 98t-54 171t54 169.5t144 96.5v73h59v-63q4 0 12.5 0.5t12.5 0.5t11 -0.5t11 -0.5v63h59v-73q113 -29 168 -128l-109 -74q-19 49 -59 76v-279q38 25 57 70l110 -70q-55 -101 -167 -130
v-78h-59zM466 104q15 0 22 1v323q-14 2 -22 2q-13 0 -25 -3v-321q8 -2 25 -2zM316 266q0 -90 66 -137v274q-66 -47 -66 -137z" />
    </font>
</defs>
</svg>
